if (_typeface_js && _typeface_js.loadFace) _typeface_js.loadFace({"glyphs":{"S":{"x_min":15.28125,"x_max":661.15625,"ha":692,"o":"m 602 256 q 550 454 619 376 q 481 511 525 483 q 377 569 438 540 q 250 644 277 618 q 205 768 195 697 q 281 895 215 847 q 425 941 341 941 q 547 911 502 941 q 579 882 565 900 q 604 843 593 865 l 661 866 q 431 997 607 997 q 245 933 326 997 q 148 768 163 870 q 197 602 133 665 q 345 511 236 563 q 495 420 462 454 q 545 256 559 356 q 462 98 530 152 q 286 45 393 45 q 75 223 98 45 l 15 204 q 277 -11 51 -11 q 408 8 352 -11 q 602 256 577 69 "},"¦":{"x_min":1.390625,"x_max":197.234375,"ha":185,"o":"m 134 605 l 197 1048 l 148 1048 l 86 605 l 134 605 m 50 0 l 113 454 l 65 454 l 1 0 l 50 0 "},"/":{"x_min":-38.890625,"x_max":448.640625,"ha":399,"o":"m 448 1012 l 394 1012 l -38 0 l 18 0 l 448 1012 "},"y":{"x_min":72.234375,"x_max":645.890625,"ha":618,"o":"m 645 573 l 583 573 l 308 120 l 158 573 l 97 573 l 266 52 l 72 -269 l 136 -269 l 645 573 "},"Á":{"x_min":-43.0625,"x_max":750.0625,"ha":879,"o":"m 673 1201 l 650 1229 l 473 1073 l 497 1047 l 673 1201 m 750 0 l 495 1023 l -43 0 l 12 0 l 169 297 l 620 297 l 693 0 l 750 0 m 605 354 l 200 354 l 476 879 l 605 354 "},"g":{"x_min":34.71875,"x_max":690.328125,"ha":708,"o":"m 611 12 l 690 573 l 633 573 l 618 473 q 404 581 543 581 q 181 495 280 581 q 68 286 84 408 q 123 75 48 159 q 322 -9 195 -9 q 566 98 459 -9 l 554 13 q 472 -152 540 -91 q 297 -212 404 -212 q 165 -186 218 -212 q 91 -84 95 -152 l 34 -84 q 288 -269 55 -269 q 504 -191 415 -269 q 611 12 591 -115 m 604 286 q 509 115 590 187 q 329 45 427 45 q 169 116 231 45 q 123 286 108 187 q 216 456 136 384 q 397 526 298 526 q 556 455 494 526 q 604 286 616 384 "},"²":{"x_min":109.734375,"x_max":428.96875,"ha":544,"o":"m 427 911 q 400 997 434 965 q 313 1030 366 1030 q 223 1000 263 1030 q 168 925 180 970 l 195 925 q 309 1005 233 1005 q 377 977 350 1005 q 401 911 405 951 q 363 833 394 875 l 109 580 l 379 580 l 383 605 l 169 605 l 319 751 q 364 797 347 779 q 388 823 381 815 q 427 911 422 868 "},"–":{"x_min":54.171875,"x_max":466.703125,"ha":517,"o":"m 458 338 l 466 395 l 62 395 l 54 338 l 458 338 "},"ë":{"x_min":30.65625,"x_max":632.34375,"ha":681,"o":"m 531 722 q 491 768 527 768 q 440 722 444 759 q 448 688 440 698 q 479 676 465 676 q 531 722 525 676 m 341 722 q 301 768 337 768 q 250 722 254 759 q 258 688 250 698 q 288 676 275 676 q 341 722 334 676 m 629 298 q 573 504 645 426 q 373 583 500 583 q 148 498 243 583 q 34 286 51 413 q 88 73 15 158 q 290 -11 159 -11 q 388 2 343 -11 q 575 141 506 38 l 526 165 q 405 63 469 88 q 297 44 355 44 q 129 113 181 44 q 91 298 75 181 l 629 298 m 572 352 l 106 352 q 365 527 187 527 q 508 480 451 527 q 572 352 570 431 "},"ƒ":{"x_min":107,"x_max":839.84375,"ha":825,"o":"m 297 736 l 193 0 l 527 0 l 536 56 l 256 56 l 388 991 l 333 991 l 318 888 l 315 893 q 238 927 286 927 q 154 893 193 927 q 108 812 113 857 q 130 732 101 766 q 206 697 161 697 q 291 732 255 697 l 297 736 m 309 829 l 305 798 q 275 754 295 773 q 211 727 244 727 q 155 754 177 727 q 137 813 131 782 q 172 873 141 847 q 234 900 200 900 q 291 873 269 900 q 309 829 309 851 m 202 790 q 209 768 201 777 q 229 759 216 759 q 252 768 241 759 q 263 790 262 777 q 259 811 266 802 q 237 820 251 820 q 215 811 225 820 q 202 790 205 802 m 838 812 q 815 893 844 857 q 738 927 784 927 q 654 893 693 927 q 608 812 613 857 q 630 732 601 766 q 707 697 661 697 q 791 732 752 697 q 838 812 833 769 m 809 813 q 775 754 804 780 q 711 727 744 727 q 655 754 677 727 q 637 813 632 782 q 672 873 641 847 q 734 900 700 900 q 791 873 769 900 q 809 813 813 847 m 704 786 q 709 764 701 773 q 730 755 718 755 q 752 764 743 755 q 765 786 762 773 q 759 807 768 798 q 738 816 751 816 q 716 807 726 816 q 704 786 707 798 m 413 -206 l 394 -176 q 268 -227 334 -227 q 150 -173 195 -227 l 115 -206 q 256 -268 165 -268 q 413 -206 352 -268 "},"Î":{"x_min":20.828125,"x_max":362.53125,"ha":267,"o":"m 362 1051 l 219 1219 l 26 1051 l 52 1022 l 211 1159 l 330 1022 l 362 1051 m 76 0 l 216 991 l 161 991 l 20 0 l 76 0 "},"e":{"x_min":43.15625,"x_max":645.328125,"ha":681,"o":"m 641 298 q 587 504 659 425 q 386 583 513 583 q 161 498 255 583 q 47 286 66 415 q 101 73 27 158 q 302 -11 173 -11 q 401 2 355 -11 q 587 141 519 37 l 540 165 q 419 63 480 88 q 311 44 368 44 q 141 113 195 44 q 104 298 87 181 l 641 298 m 586 352 l 120 352 q 377 527 200 527 q 522 480 462 527 q 586 352 581 431 "},"Ã":{"x_min":-37.5,"x_max":755.609375,"ha":872,"o":"m 736 1111 l 700 1141 q 672 1118 683 1126 q 655 1108 661 1111 l 637 1102 l 605 1102 l 558 1108 l 520 1125 q 508 1132 513 1129 q 498 1137 502 1134 q 427 1151 462 1151 q 286 1080 336 1151 l 320 1050 q 413 1095 362 1095 q 462 1087 443 1095 l 500 1070 q 604 1045 537 1045 q 682 1065 645 1045 l 705 1083 l 736 1111 m 755 0 l 501 1023 l -37 0 l 18 0 l 175 297 l 626 297 l 698 0 l 755 0 m 611 354 l 205 354 l 481 879 l 611 354 "},"J":{"x_min":-16.671875,"x_max":425.03125,"ha":438,"o":"m 312 197 l 425 991 l 368 991 l 256 200 q 130 45 233 45 q 36 109 65 45 l -16 79 q 123 -11 19 -11 q 312 197 283 -11 "},"»":{"x_min":48.609375,"x_max":573.65625,"ha":610,"o":"m 573 354 l 347 616 l 315 587 l 516 354 l 256 126 l 281 97 l 573 354 m 365 354 l 138 616 l 106 587 l 308 354 l 48 126 l 73 97 l 365 354 "},"©":{"x_min":43.3125,"x_max":781.75,"ha":817,"o":"m 777 540 q 708 800 798 694 q 463 905 615 905 q 190 798 312 905 q 47 540 68 691 q 116 280 26 386 q 361 175 208 175 q 634 281 512 175 q 777 540 757 388 m 751 541 q 619 301 732 400 q 366 204 509 204 q 140 302 226 204 q 76 541 56 400 q 208 782 97 686 q 461 879 318 879 q 687 780 601 879 q 751 541 772 682 m 529 427 l 533 461 q 394 406 476 406 q 286 448 319 406 q 261 547 252 490 q 319 648 269 611 q 433 686 369 686 l 472 682 q 509 669 490 679 l 536 655 l 558 638 l 562 672 l 537 688 l 515 700 q 437 713 488 713 q 301 668 359 713 q 233 547 244 625 q 268 425 222 472 q 390 379 313 379 q 529 427 472 379 "},"ò":{"x_min":24.703125,"x_max":623.5,"ha":692,"o":"m 440 683 l 279 869 l 244 836 l 400 651 l 440 683 m 619 286 q 563 497 638 412 q 366 583 490 583 q 144 495 241 583 q 27 286 47 411 q 84 75 11 159 q 283 -9 156 -9 q 505 76 406 -9 q 619 286 602 163 m 563 286 q 470 115 551 187 q 290 45 388 45 q 130 116 193 45 q 83 286 70 187 q 179 455 97 381 q 358 527 259 527 q 519 456 458 527 q 563 286 577 387 "},"^":{"x_min":29.171875,"x_max":411.140625,"ha":489,"o":"m 411 523 l 298 913 l 252 913 l 29 523 l 65 523 l 261 809 l 373 523 l 411 523 "},"\f":{"x_min":102.78125,"x_max":438.921875,"ha":525,"o":"m 438 776 l 413 807 l 255 669 l 136 807 l 102 776 l 247 609 l 438 776 "},"«":{"x_min":52.78125,"x_max":576.4375,"ha":610,"o":"m 576 587 l 551 616 l 254 354 l 473 97 l 506 126 l 309 354 l 576 587 m 375 587 l 351 616 l 52 354 l 272 97 l 305 126 l 109 354 l 375 587 "},"D":{"x_min":36.109375,"x_max":885.890625,"ha":956,"o":"m 879 497 q 809 841 908 698 q 505 991 705 991 l 175 991 l 36 0 l 366 0 q 713 150 568 0 q 879 497 850 290 m 822 497 q 655 170 793 291 q 375 56 529 56 l 100 56 l 223 936 l 498 936 q 763 802 673 936 q 822 497 847 677 "},"":{"x_min":75,"x_max":466.703125,"ha":544,"o":"m 322 581 l 384 1029 l 301 1029 l 280 1002 l 355 1002 l 297 581 l 322 581 m 462 491 l 466 527 l 113 527 l 109 491 l 462 491 m 391 330 q 365 416 400 383 q 277 450 331 450 q 187 419 230 450 q 133 344 145 390 l 161 344 q 275 425 198 425 q 343 397 315 425 q 365 330 372 372 q 329 252 361 295 l 75 0 l 344 0 l 347 25 l 133 25 l 283 170 q 354 243 343 229 q 391 330 384 284 "},"":{"x_min":36.109375,"x_max":620.90625,"ha":681,"o":"m 618 504 q 565 683 633 618 q 383 750 498 750 l 197 750 l 230 991 l 175 991 l 36 0 l 91 0 l 127 254 l 313 254 q 515 323 426 254 q 618 504 601 390 m 561 504 q 480 361 548 413 q 319 311 413 311 l 134 311 l 188 693 l 373 693 q 516 645 468 693 q 561 504 573 593 "},"∙":{"x_min":154.171875,"x_max":245.859375,"ha":383,"o":"m 245 450 q 205 495 241 495 q 154 450 158 487 q 162 416 154 426 q 193 404 179 404 q 245 450 238 404 "},"ÿ":{"x_min":59.734375,"x_max":633.390625,"ha":618,"o":"m 526 722 q 486 768 522 768 q 434 722 438 759 q 443 688 434 698 q 473 676 459 676 q 526 722 519 676 m 336 722 q 295 768 331 768 q 244 722 248 759 q 252 688 244 698 q 283 676 269 676 q 336 722 329 676 m 633 573 l 570 573 l 295 120 l 145 573 l 84 573 l 252 52 l 59 -269 l 123 -269 l 633 573 "},"":{"x_min":75,"x_max":376.421875,"ha":442,"o":"m 368 338 l 376 395 l 83 395 l 75 338 l 368 338 "},"í":{"x_min":40.28125,"x_max":376.421875,"ha":256,"o":"m 376 836 l 348 869 l 136 683 l 166 651 l 376 836 m 97 0 l 177 573 l 120 573 l 40 0 l 97 0 "},"ˆ":{"x_min":90.28125,"x_max":423.640625,"ha":525,"o":"m 423 688 l 280 855 l 90 688 l 113 658 l 272 795 l 391 658 l 423 688 "},"w":{"x_min":80.5625,"x_max":958.40625,"ha":950,"o":"m 958 573 l 894 573 l 641 130 l 522 591 l 272 129 l 141 573 l 80 573 l 254 -25 l 500 433 l 615 -25 l 958 573 "},"$":{"x_min":9.71875,"x_max":632,"ha":658,"o":"m 590 270 q 388 558 616 463 l 441 940 q 575 843 541 925 l 632 866 q 450 995 583 995 l 459 1069 l 404 1069 l 394 995 q 226 929 298 995 q 141 768 154 863 q 180 605 127 666 q 237 560 201 581 q 327 519 273 538 l 261 47 q 69 223 91 47 l 9 204 q 84 45 19 104 q 252 -11 150 -11 l 243 -84 l 298 -84 l 308 -9 q 504 73 426 -9 q 590 270 570 147 m 336 580 q 233 645 262 612 q 198 762 190 691 q 261 883 208 834 q 386 940 309 929 l 336 580 m 533 270 q 468 115 519 176 q 316 47 409 47 l 379 497 q 533 270 554 422 "},"\\":{"x_min":101.390625,"x_max":301.40625,"ha":390,"o":"m 301 0 l 156 991 l 101 991 l 247 0 l 301 0 "},"Ì":{"x_min":19.453125,"x_max":243.078125,"ha":267,"o":"m 243 1072 l 100 1240 l 66 1209 l 208 1044 l 243 1072 m 75 0 l 215 991 l 159 991 l 19 0 l 75 0 "},"µ":{"x_min":31.953125,"x_max":1005.53125,"ha":1090,"o":"m 736 736 q 679 926 752 852 q 486 1000 602 1000 q 251 908 348 1000 q 159 765 180 838 l 222 765 q 291 872 245 827 q 477 944 365 944 q 630 884 569 944 q 679 736 691 823 q 595 562 666 645 l 31 0 l 632 0 l 638 56 l 163 56 l 494 379 q 568 453 538 423 q 612 498 597 483 q 736 736 719 615 m 504 618 q 480 698 511 665 q 405 733 451 733 q 319 698 358 733 q 273 618 279 662 q 297 537 268 573 q 372 502 326 502 q 458 537 419 502 q 504 618 498 573 m 475 619 q 440 559 470 586 q 377 533 412 533 q 320 559 343 533 q 302 619 298 586 q 337 679 306 650 q 401 705 368 705 q 456 679 434 705 q 475 619 479 652 m 1004 618 q 980 698 1011 665 q 905 733 951 733 q 819 698 858 733 q 773 618 779 662 q 797 537 768 573 q 872 502 826 502 q 958 537 919 502 q 1004 618 998 573 m 975 619 q 940 559 970 586 q 877 533 912 533 q 820 559 843 533 q 802 619 798 586 q 837 679 807 650 q 901 705 868 705 q 957 679 934 705 q 975 619 979 652 m 369 595 q 375 574 366 583 q 395 565 383 565 q 418 574 408 565 q 430 595 427 583 q 425 617 433 608 q 404 626 416 626 q 381 617 391 626 q 369 595 372 608 m 869 591 q 875 570 868 579 q 895 561 883 561 q 918 570 908 561 q 930 591 929 579 q 925 613 933 604 q 905 622 918 622 q 882 613 891 622 q 869 591 872 604 m 734 -179 l 715 -148 q 588 -200 655 -200 q 470 -145 516 -200 l 436 -179 q 577 -240 486 -240 q 734 -179 673 -240 "},"Ç":{"x_min":76.875,"x_max":998.6875,"ha":975,"o":"m 887 106 l 895 172 q 813 120 850 141 q 751 87 777 100 q 529 43 654 43 q 220 170 331 43 q 140 495 112 297 q 312 822 168 694 q 657 950 459 950 q 770 938 716 950 q 872 907 823 927 q 988 829 937 876 l 998 900 q 890 968 948 944 q 663 1005 794 1005 q 277 862 438 1005 q 83 495 113 720 q 166 138 52 277 q 481 -13 291 -13 l 452 -65 q 481 -86 469 -69 q 491 -118 494 -100 q 447 -151 487 -151 q 395 -125 416 -151 l 366 -170 q 456 -209 400 -209 q 552 -126 540 -209 q 519 -52 559 -84 l 540 -13 q 762 29 662 -13 l 812 58 l 887 106 "},"’":{"x_min":88.890625,"x_max":177.796875,"ha":219,"o":"m 154 859 l 177 1022 l 104 1022 l 88 922 l 134 922 l 126 859 q 91 794 122 822 l 119 794 q 154 859 150 825 "},"-":{"x_min":20.828125,"x_max":322.25,"ha":376,"o":"m 313 312 l 322 369 l 29 369 l 20 312 l 313 312 "},"Q":{"x_min":82.734375,"x_max":1115.921875,"ha":1142,"o":"m 1109 495 q 1018 863 1140 720 q 670 1005 894 1005 q 283 862 444 1005 q 88 495 119 720 q 179 127 58 272 q 526 -13 301 -13 q 915 129 754 -13 q 1109 495 1079 270 m 1052 495 q 880 168 1023 294 q 534 43 736 43 q 227 170 336 43 q 145 495 118 297 q 319 822 173 694 q 662 950 463 950 q 972 822 861 950 q 1052 495 1082 694 m 887 -175 l 915 -125 l 644 -15 l 615 -65 l 887 -175 "},"M":{"x_min":-37.5,"x_max":1154.265625,"ha":1253,"o":"m 1154 0 l 1038 1022 l 576 136 l 363 1020 l -37 0 l 19 0 l 348 834 l 554 -25 l 1001 833 l 1095 0 l 1154 0 "},"C":{"x_min":63.28125,"x_max":984.796875,"ha":975,"o":"m 873 106 l 882 172 q 800 120 836 141 q 737 87 763 100 q 515 43 640 43 q 208 170 316 43 q 126 495 98 297 q 300 822 154 694 q 643 950 444 950 q 756 938 702 950 q 858 907 809 927 q 975 829 923 876 l 984 900 q 876 968 934 944 q 651 1005 780 1005 q 263 862 425 1005 q 69 495 100 720 q 159 127 38 272 q 506 -13 281 -13 q 545 -13 527 -13 q 579 -11 563 -12 q 800 58 713 1 l 873 106 "},"œ":{"x_min":45.484375,"x_max":1184.65625,"ha":1226,"o":"m 1180 298 q 1125 502 1200 426 q 925 580 1051 580 q 754 536 836 580 q 629 412 673 491 q 536 536 600 488 q 386 581 470 581 q 163 495 262 581 q 48 286 68 411 q 104 75 31 159 q 302 -9 179 -9 q 468 36 388 -9 q 593 159 547 81 q 686 33 619 79 q 841 -11 751 -11 q 940 2 894 -11 q 1126 141 1058 37 l 1079 165 q 958 63 1019 88 q 850 44 907 44 q 680 113 734 44 q 643 298 626 181 l 1180 298 m 1125 352 l 659 352 q 916 525 740 525 q 1076 463 1019 525 q 1125 352 1118 418 m 584 286 q 490 115 569 184 q 311 45 409 45 q 151 116 211 45 q 104 286 90 188 q 198 456 119 387 q 377 526 279 526 q 537 455 476 526 q 584 286 598 383 "},"!":{"x_min":29.390625,"x_max":238.90625,"ha":283,"o":"m 129 205 l 238 991 l 183 991 l 73 205 l 129 205 m 130 44 q 119 79 127 70 q 87 94 106 94 q 30 44 34 86 q 73 -5 22 -5 q 130 44 125 2 "},"ç":{"x_min":75.125,"x_max":586.15625,"ha":608,"o":"m 516 40 l 526 115 l 479 80 q 341 45 413 45 q 179 113 237 45 q 136 286 120 181 q 227 459 150 390 q 409 527 304 527 q 538 493 483 527 l 556 476 l 575 458 l 586 533 l 544 558 q 418 583 486 583 q 193 498 290 583 q 79 286 95 413 q 123 83 61 165 q 304 -11 186 1 l 277 -65 l 301 -86 q 311 -115 313 -100 l 306 -126 l 301 -134 q 277 -145 290 -145 q 251 -137 261 -145 l 231 -118 l 206 -166 q 272 -201 229 -201 q 333 -179 305 -201 q 366 -125 362 -156 q 338 -56 366 -72 l 363 -9 q 472 15 419 -9 l 516 40 "},"È":{"x_min":11.109375,"x_max":627.828125,"ha":657,"o":"m 431 1072 l 288 1240 l 255 1209 l 397 1044 l 431 1072 m 487 0 l 495 56 l 76 56 l 140 512 l 559 512 l 568 573 l 148 573 l 200 934 l 619 934 l 627 991 l 151 991 l 11 0 l 487 0 "},"{":{"x_min":12.5,"x_max":323.640625,"ha":268,"o":"m 169 -70 l 176 -19 q 83 2 105 -19 q 69 91 61 23 l 108 368 q 100 434 112 398 q 69 493 87 472 q 143 618 133 541 l 179 872 q 219 963 190 938 q 316 990 251 990 l 323 1041 q 186 1002 229 1041 q 127 872 140 965 l 91 618 q 12 493 80 543 q 34 465 25 477 q 47 441 43 452 q 56 368 61 402 l 18 88 q 40 -37 5 -4 q 169 -70 73 -70 "},"X":{"x_min":-23.609375,"x_max":752.84375,"ha":736,"o":"m 630 0 l 409 508 l 752 991 l 687 991 l 381 562 l 197 991 l 131 991 l 340 512 l -23 0 l 40 0 l 365 459 l 565 0 l 630 0 "},"ô":{"x_min":26.046875,"x_max":624.4375,"ha":692,"o":"m 544 688 l 401 855 l 208 688 l 234 658 l 393 795 l 512 658 l 544 688 m 620 286 q 565 497 638 409 q 366 583 491 583 q 144 495 244 583 q 29 286 45 409 q 84 75 12 159 q 283 -9 159 -9 q 505 76 408 -9 q 620 286 604 162 m 565 286 q 470 115 550 184 q 291 45 390 45 q 131 116 191 45 q 84 286 72 187 q 180 455 98 381 q 359 527 261 527 q 520 456 459 527 q 565 286 579 387 "},"¼":{"x_min":44.453125,"x_max":463.921875,"ha":544,"o":"m 313 581 l 376 1029 l 293 1029 l 272 1002 l 347 1002 l 288 581 l 313 581 m 459 491 l 463 527 l 111 527 l 106 491 l 459 491 m 338 83 l 343 108 l 304 108 l 352 451 l 44 83 l 273 83 l 262 -1 l 288 -1 l 300 83 l 338 83 m 277 108 l 94 108 l 313 368 l 277 108 "},"#":{"x_min":29.171875,"x_max":741.71875,"ha":751,"o":"m 741 716 l 559 716 l 626 893 l 593 893 l 525 716 l 331 716 l 398 893 l 365 893 l 297 716 l 104 716 l 87 683 l 283 683 l 222 523 l 44 523 l 29 488 l 209 488 l 143 313 l 176 313 l 244 488 l 438 488 l 366 306 l 401 306 l 472 488 l 658 488 l 673 523 l 484 523 l 545 683 l 725 683 l 741 716 m 512 683 l 451 523 l 256 523 l 316 683 l 512 683 "},"Ê":{"x_min":11.109375,"x_max":626.4375,"ha":657,"o":"m 573 1079 l 430 1247 l 238 1079 l 263 1050 l 422 1187 l 541 1050 l 573 1079 m 487 0 l 495 56 l 76 56 l 140 512 l 559 512 l 568 573 l 148 573 l 198 934 l 618 934 l 626 991 l 150 991 l 11 0 l 487 0 "},")":{"x_min":-4.171875,"x_max":243.421875,"ha":269,"o":"m 227 480 q 240 602 236 541 q 243 725 244 662 q 231 889 240 809 q 202 1047 222 969 l 154 1047 q 179 480 218 761 q 157 366 172 427 q 122 236 143 305 q -4 -86 69 59 l 44 -86 q 227 480 186 181 "},"\u001c":{"x_min":52.78125,"x_max":814.84375,"ha":795,"o":"m 381 197 l 494 991 l 437 991 l 326 200 q 200 45 302 45 q 105 109 134 45 l 52 79 q 193 -11 88 -11 q 381 197 352 -11 m 313 854 q 290 934 319 898 q 213 969 261 969 q 129 934 168 969 q 83 854 88 898 q 106 773 76 807 q 181 738 136 738 q 268 773 229 738 q 313 854 308 809 m 284 855 q 250 795 280 825 q 186 769 219 769 q 130 795 152 769 q 112 855 108 822 q 147 915 116 886 q 211 941 175 941 q 266 915 244 941 q 284 855 288 888 m 813 854 q 790 934 819 898 q 713 969 761 969 q 629 934 668 969 q 583 854 588 898 q 607 773 576 807 q 682 738 636 738 q 768 773 729 738 q 813 854 808 809 m 784 855 q 750 795 780 825 q 686 769 719 769 q 630 795 652 769 q 612 855 608 822 q 647 915 616 886 q 711 941 675 941 q 766 915 744 941 q 784 855 788 888 m 179 832 q 184 810 176 819 q 204 801 191 801 q 227 810 218 801 q 240 832 237 819 q 234 853 241 844 q 213 862 226 862 q 190 853 201 862 q 179 832 180 844 m 679 827 q 684 806 676 815 q 705 797 693 797 q 727 806 718 797 q 740 827 737 815 q 734 849 743 840 q 713 858 726 858 q 691 849 701 858 q 679 827 682 840 "},"Å":{"x_min":-43.0625,"x_max":750.0625,"ha":879,"o":"m 605 1129 q 587 1195 612 1169 q 525 1223 563 1223 q 454 1195 486 1223 q 416 1129 422 1168 q 436 1062 412 1088 q 498 1034 459 1034 q 569 1062 534 1034 q 605 1129 601 1090 m 750 0 l 497 1023 l -43 0 l 12 0 l 169 297 l 620 297 l 693 0 l 750 0 m 580 1130 q 552 1082 579 1105 q 501 1059 529 1059 q 454 1080 470 1059 q 441 1130 437 1098 q 469 1180 445 1158 q 522 1200 493 1200 q 566 1179 550 1200 q 580 1130 584 1158 m 605 354 l 200 354 l 476 879 l 605 354 "},"ø":{"x_min":45.296875,"x_max":643.5,"ha":692,"o":"m 640 286 q 573 505 658 416 l 641 587 l 597 620 l 530 541 q 386 581 466 581 q 163 495 262 581 q 48 286 65 409 q 123 58 29 145 l 63 -13 l 105 -48 l 168 25 q 302 -9 227 -9 q 525 76 426 -9 q 640 286 623 162 m 584 286 q 490 115 569 184 q 311 45 409 45 l 255 51 l 230 59 l 206 70 l 536 459 q 584 286 598 390 m 491 495 l 162 104 q 104 286 88 175 q 198 456 119 387 q 377 526 279 526 q 491 495 438 526 "},"â":{"x_min":26.046875,"x_max":651.4375,"ha":708,"o":"m 544 688 l 401 855 l 208 688 l 234 658 l 393 795 l 512 658 l 544 688 m 570 0 l 651 573 l 594 573 l 580 473 q 366 581 502 581 q 144 495 243 581 q 29 286 48 411 q 84 75 12 159 q 283 -9 159 -9 q 527 98 423 -9 l 513 0 l 570 0 m 565 286 q 470 115 550 184 q 291 45 390 45 q 131 116 191 45 q 84 286 72 187 q 179 456 100 387 q 358 526 259 526 q 518 455 456 526 q 565 286 580 384 "},"}":{"x_min":-56.953125,"x_max":258.359375,"ha":268,"o":"m 258 493 q 223 541 230 523 q 212 618 208 576 l 248 872 q 226 1001 261 962 q 100 1041 193 1041 l 93 990 q 181 963 159 990 q 197 872 206 936 l 161 618 q 166 545 156 573 q 201 493 177 515 q 126 368 137 434 l 87 91 q 48 1 79 25 q -50 -19 19 -19 l -56 -70 q 81 -37 36 -70 q 138 88 126 -4 l 177 368 q 211 443 183 402 q 258 493 231 475 "},"‰":{"x_min":-40.28125,"x_max":1063.9375,"ha":1149,"o":"m 1062 159 q 1027 281 1070 230 q 912 333 984 333 q 783 281 840 333 q 716 159 725 227 q 751 40 707 91 q 863 -11 797 -11 q 994 38 936 -11 q 1062 159 1052 87 m 456 794 q 422 916 466 863 q 306 968 379 968 q 179 916 234 968 q 111 794 120 865 q 145 675 101 727 q 258 623 191 623 q 388 673 330 623 q 456 794 445 720 m 900 991 l 830 991 l -40 0 l 29 0 l 900 991 m 645 159 q 611 281 654 230 q 495 333 568 333 q 366 281 423 333 q 300 159 308 227 q 334 40 290 91 q 447 -11 380 -11 q 577 38 519 -11 q 645 159 636 87 m 1005 159 q 958 79 997 113 q 872 45 918 45 q 794 77 826 45 q 773 159 766 115 q 818 241 779 205 q 904 276 857 276 q 982 241 952 276 q 1005 159 1011 205 m 400 794 q 354 713 394 750 q 266 680 308 680 q 191 715 220 680 q 168 794 161 747 q 213 876 173 840 q 300 911 250 911 q 376 876 347 911 q 400 794 405 840 m 588 159 q 541 79 580 113 q 455 45 501 45 q 377 77 409 45 q 356 159 350 115 q 401 241 362 205 q 487 276 440 276 q 565 241 536 276 q 588 159 594 205 "},"Ä":{"x_min":-37.5,"x_max":755.609375,"ha":872,"o":"m 650 1105 q 609 1151 645 1151 q 558 1105 562 1143 q 566 1072 556 1084 q 597 1059 580 1059 q 650 1105 643 1059 m 459 1105 q 419 1151 455 1151 q 368 1105 372 1143 q 376 1072 366 1084 q 406 1059 390 1059 q 459 1105 452 1059 m 755 0 l 501 1023 l -37 0 l 18 0 l 175 297 l 626 297 l 698 0 l 755 0 m 611 354 l 205 354 l 481 879 l 611 354 "},"¸":{"x_min":90.28125,"x_max":267.875,"ha":361,"o":"m 266 -130 q 225 -56 275 -73 l 252 0 l 190 0 l 158 -68 q 201 -116 205 -86 q 156 -150 197 -150 l 125 -140 q 98 -119 105 -127 l 90 -175 q 175 -209 125 -209 q 236 -187 212 -209 q 266 -130 262 -165 "},"a":{"x_min":45.484375,"x_max":670.890625,"ha":708,"o":"m 590 0 l 670 573 l 613 573 l 600 473 q 386 581 522 581 q 163 495 262 581 q 48 286 65 409 q 104 75 31 159 q 302 -9 176 -9 q 547 98 440 -9 l 533 0 l 590 0 m 584 286 q 490 115 569 184 q 311 45 409 45 q 151 116 211 45 q 104 286 90 188 q 198 456 119 387 q 377 526 279 526 q 537 455 476 526 q 584 286 598 383 "},"—":{"x_min":68.0625,"x_max":798.671875,"ha":857,"o":"m 790 338 l 798 395 l 76 395 l 68 338 l 790 338 "},"=":{"x_min":36.109375,"x_max":380.59375,"ha":411,"o":"m 373 423 l 380 480 l 66 480 l 59 423 l 373 423 m 350 254 l 356 309 l 43 309 l 36 254 l 350 254 "},"N":{"x_min":37.5,"x_max":975.078125,"ha":993,"o":"m 833 -16 l 975 991 l 918 991 l 797 130 l 177 998 l 37 0 l 93 0 l 211 841 l 833 -16 "},"ú":{"x_min":50.9375,"x_max":544.484375,"ha":596,"o":"m 544 836 l 519 869 l 306 683 l 334 651 l 544 836 m 481 215 l 533 573 l 477 573 l 426 215 q 243 44 402 44 q 130 88 162 44 q 111 215 100 130 l 162 573 l 105 573 l 54 215 q 86 48 40 109 q 234 -11 133 -11 q 404 50 338 -11 q 481 215 468 111 "},"2":{"x_min":13.890625,"x_max":722.578125,"ha":757,"o":"m 719 736 q 662 926 736 852 q 469 1000 586 1000 q 234 908 330 1000 q 143 765 163 838 l 205 765 q 275 872 229 830 q 461 944 348 944 q 612 884 552 944 q 662 736 675 825 q 579 562 650 645 l 13 0 l 613 0 l 622 56 l 147 56 l 477 379 q 551 453 522 423 q 595 498 580 483 q 719 736 702 618 "},"ü":{"x_min":57.46875,"x_max":540.328125,"ha":596,"o":"m 486 722 q 445 768 481 768 q 394 722 398 759 q 402 688 394 698 q 433 676 419 676 q 486 722 479 676 m 295 722 q 255 768 291 768 q 204 722 208 759 q 212 688 204 698 q 243 676 229 676 q 295 722 288 676 m 488 215 l 540 573 l 484 573 l 433 215 q 250 44 409 44 q 137 88 169 44 q 118 215 106 130 l 169 573 l 112 573 l 61 215 q 94 48 45 108 q 243 -11 140 -11 q 411 50 345 -11 q 488 215 475 111 "},"¯":{"x_min":75,"x_max":479.203125,"ha":546,"o":"m 470 658 l 479 708 l 83 708 l 75 658 l 470 658 "},"Z":{"x_min":-11.109375,"x_max":798.671875,"ha":770,"o":"m 798 991 l 161 991 l 152 933 l 673 933 l -11 0 l 657 0 l 665 56 l 112 56 l 798 991 "},"u":{"x_min":71.765625,"x_max":554.21875,"ha":596,"o":"m 502 215 l 554 573 l 498 573 l 447 215 q 263 44 423 44 q 151 88 183 44 q 131 215 120 130 l 183 573 l 126 573 l 75 215 q 106 48 61 109 q 255 -11 154 -11 q 425 50 359 -11 q 502 215 488 111 "},"˜":{"x_min":75,"x_max":525.046875,"ha":588,"o":"m 525 743 l 488 773 q 461 750 472 758 q 444 740 450 743 l 426 734 l 394 734 l 347 740 l 309 757 q 297 763 302 761 q 287 769 291 766 q 216 783 251 783 q 75 712 125 783 l 109 682 q 202 727 151 727 q 251 719 231 727 l 288 702 q 393 677 327 677 q 470 697 434 677 l 494 715 l 525 743 "},"Ó":{"x_min":47.546875,"x_max":1081.203125,"ha":1142,"o":"m 793 1201 l 770 1229 l 594 1073 l 616 1047 l 793 1201 m 1075 495 q 983 863 1105 720 q 634 1005 859 1005 q 247 862 408 1005 q 54 495 86 720 q 144 127 22 269 q 491 -13 266 -13 q 880 129 716 -13 q 1075 495 1044 270 m 1018 495 q 845 168 988 294 q 500 43 700 43 q 191 170 302 43 q 111 495 81 300 q 283 822 138 694 q 627 950 430 950 q 936 822 827 950 q 1018 495 1045 697 "},"k":{"x_min":20.828125,"x_max":490.3125,"ha":579,"o":"m 484 0 l 194 337 l 490 595 l 409 595 l 126 348 l 222 1027 l 165 1027 l 20 0 l 77 0 l 115 266 l 151 298 l 409 0 l 484 0 "},"Ù":{"x_min":51.09375,"x_max":733.390625,"ha":771,"o":"m 500 1072 l 356 1240 l 323 1209 l 465 1044 l 500 1072 m 629 247 l 733 991 l 676 991 l 572 247 q 480 98 559 154 q 312 47 406 47 q 158 97 213 47 q 109 247 94 152 l 213 991 l 158 991 l 54 247 q 111 55 37 125 q 304 -9 183 -9 q 513 54 429 -9 q 629 247 612 127 "},"Ÿ":{"x_min":104.171875,"x_max":726.453125,"ha":710,"o":"m 566 1105 q 526 1151 562 1151 q 475 1105 479 1143 q 483 1072 473 1084 q 513 1059 497 1059 q 566 1105 559 1059 m 376 1105 q 336 1151 372 1151 q 284 1105 288 1143 q 293 1072 283 1084 q 323 1059 306 1059 q 376 1105 369 1059 m 726 991 l 661 991 l 354 562 l 169 991 l 104 991 l 316 495 l 247 0 l 304 0 l 373 495 l 726 991 "},"€":{"x_min":-15.28125,"x_max":998.6875,"ha":975,"o":"m 907 379 l 915 434 l 134 434 q 136 465 136 450 q 140 495 137 480 q 145 522 143 509 q 150 548 147 536 l 932 548 l 938 605 l 166 605 q 313 822 211 733 q 657 950 458 950 q 770 938 716 950 q 872 907 823 927 q 988 829 937 876 l 998 900 q 890 968 948 944 q 665 1005 794 1005 q 277 862 438 1005 q 108 605 156 758 l 16 605 l 8 548 l 93 548 q 88 522 90 536 q 83 495 86 509 q 79 465 80 480 q 77 434 77 450 l -6 434 l -15 379 l 77 379 q 173 127 83 234 q 520 -13 295 -13 q 559 -13 541 -13 q 593 -11 577 -12 q 813 58 727 1 l 887 106 l 895 172 q 813 120 850 141 q 751 87 777 100 q 529 43 654 43 q 222 170 330 43 q 136 379 147 256 l 907 379 "},"¢":{"x_min":49.828125,"x_max":548.65625,"ha":588,"o":"m 538 651 l 548 719 q 481 759 522 747 q 400 775 447 775 l 409 843 l 351 843 l 341 773 q 147 680 226 759 q 52 487 69 602 q 90 305 38 381 q 262 209 154 209 l 251 127 l 309 127 l 320 208 l 365 212 l 408 222 q 480 255 455 240 l 488 319 q 327 262 398 262 l 391 715 q 472 695 430 715 l 505 675 l 538 651 m 270 263 q 144 338 186 277 q 113 487 101 398 q 186 638 126 572 q 333 713 245 701 l 270 263 "},"ß":{"x_min":33.34375,"x_max":676.53125,"ha":749,"o":"m 672 291 q 622 488 691 415 q 475 561 569 548 q 613 766 597 634 q 568 927 629 862 q 409 991 506 991 q 230 923 298 991 q 144 745 161 858 l 120 573 l 41 573 l 33 516 l 112 516 l 40 0 l 95 0 l 200 744 q 401 934 227 934 q 522 886 473 934 q 556 766 566 838 q 490 631 547 690 q 358 573 433 573 l 350 518 q 615 291 648 518 q 536 127 602 197 q 372 56 465 56 l 213 56 l 205 0 l 362 0 q 573 83 487 0 q 672 291 655 163 "},"":{"x_min":50,"x_max":458.765625,"ha":544,"o":"m 430 704 q 359 823 443 798 q 456 926 445 847 q 434 1009 465 975 q 354 1040 404 1040 q 268 1011 305 1040 q 219 934 230 983 l 248 934 q 350 1013 270 1013 q 411 988 387 1013 q 426 926 431 965 l 416 891 l 395 865 q 329 841 369 841 l 302 841 l 297 805 l 323 805 l 351 800 q 377 783 363 794 q 402 704 408 755 q 363 633 395 661 q 288 605 329 605 q 230 629 251 605 q 204 677 208 654 l 176 677 q 284 580 188 580 q 381 615 341 580 q 430 704 422 650 m 450 491 l 455 527 l 101 527 l 95 491 l 450 491 m 344 83 l 347 108 l 308 108 l 356 451 l 50 83 l 279 83 l 266 -1 l 293 -1 l 305 83 l 344 83 m 281 108 l 98 108 l 319 368 l 281 108 "},"é":{"x_min":23.71875,"x_max":625.390625,"ha":681,"o":"m 551 836 l 526 869 l 313 683 l 341 651 l 551 836 m 622 298 q 566 504 638 426 q 366 583 493 583 q 141 498 236 583 q 27 286 44 413 q 81 73 8 158 q 281 -11 152 -11 q 381 2 336 -11 q 568 141 500 38 l 519 165 q 398 63 462 88 q 290 44 348 44 q 122 113 175 44 q 84 298 68 181 l 622 298 m 565 352 l 100 352 q 358 527 180 527 q 501 480 441 527 q 565 352 561 433 "},"s":{"x_min":15.28125,"x_max":429.203125,"ha":460,"o":"m 409 156 q 368 280 419 234 q 324 306 352 291 q 251 337 295 320 q 207 356 226 347 q 177 375 188 365 q 156 438 150 400 q 268 526 166 526 q 383 479 341 526 l 429 515 q 276 581 372 581 q 158 538 206 581 q 100 438 105 495 q 129 334 88 369 q 222 284 155 311 q 319 241 294 256 q 352 156 359 205 q 206 45 337 45 q 116 72 147 45 q 68 138 84 98 l 15 109 q 198 -11 65 -11 q 337 36 277 -11 q 409 156 398 81 "},"B":{"x_min":36.109375,"x_max":700.71875,"ha":776,"o":"m 697 287 q 659 468 712 394 q 505 562 607 541 q 638 754 619 622 q 591 932 655 868 q 416 991 533 991 l 175 991 l 36 0 l 345 0 q 576 80 475 0 q 697 287 677 159 m 581 754 q 511 623 572 673 q 370 573 450 573 l 172 573 l 222 934 l 412 934 q 544 884 495 934 q 581 754 594 836 m 641 287 q 543 120 627 186 q 355 56 461 56 l 100 56 l 163 516 l 419 516 q 588 455 526 516 q 641 287 657 390 "},"…":{"x_min":-5.5625,"x_max":483.375,"ha":581,"o":"m 86 37 q 47 83 81 83 q -5 37 1 75 q 4 4 -5 13 q 33 -8 18 -8 q 86 37 79 -8 m 284 37 q 245 83 280 83 q 193 37 200 75 q 202 4 193 13 q 231 -8 216 -8 q 284 37 277 -8 m 483 37 q 444 83 479 83 q 391 37 398 75 q 401 4 391 13 q 430 -8 415 -8 q 483 37 476 -8 "},"?":{"x_min":108.34375,"x_max":644.390625,"ha":651,"o":"m 641 794 q 584 955 657 898 q 412 1005 522 1005 q 108 820 212 1005 l 158 797 q 250 897 205 863 q 404 950 322 950 q 537 913 486 950 q 584 794 595 872 q 519 677 576 734 q 476 643 505 663 q 402 591 447 622 l 272 504 q 152 341 165 430 q 183 243 144 277 q 277 211 223 206 l 318 213 l 351 222 q 404 252 387 237 l 377 298 q 286 269 336 269 q 230 288 252 269 q 213 341 209 308 q 300 463 223 413 l 429 548 q 556 638 538 620 q 641 794 629 709 m 295 44 q 254 93 293 93 q 198 44 205 84 q 240 -4 201 -4 q 295 44 288 -4 "},"H":{"x_min":36.109375,"x_max":833.40625,"ha":854,"o":"m 694 0 l 833 991 l 776 991 l 718 573 l 172 573 l 230 991 l 175 991 l 36 0 l 91 0 l 163 516 l 709 516 l 637 0 l 694 0 "},"î":{"x_min":47.21875,"x_max":383.359375,"ha":354,"o":"m 383 688 l 240 855 l 47 688 l 73 658 l 231 795 l 351 658 l 383 688 m 145 0 l 226 573 l 169 573 l 88 0 l 145 0 "},"c":{"x_min":61.671875,"x_max":572.265625,"ha":608,"o":"m 502 40 l 512 111 q 329 44 429 44 q 163 112 223 44 q 120 286 106 180 q 212 461 134 391 q 395 527 288 527 q 494 509 444 527 l 530 488 l 562 465 l 572 533 q 404 583 513 583 q 180 498 275 583 q 65 286 84 415 q 119 73 47 161 q 320 -11 191 -11 q 502 40 418 -11 "},"¶":{"x_min":105.5,"x_max":694.5,"ha":701,"o":"m 544 -84 l 694 991 l 637 991 l 487 -84 l 544 -84 m 412 -84 l 562 991 l 412 991 q 213 925 298 991 q 108 743 125 855 q 159 562 93 627 q 343 495 226 495 l 436 495 l 355 -84 l 412 -84 "},"•":{"x_min":65.34375,"x_max":299.03125,"ha":408,"o":"m 297 455 q 275 537 305 501 q 198 570 245 570 q 112 537 150 570 q 66 455 72 501 q 88 373 59 406 q 165 340 118 340 q 252 373 215 340 q 297 455 290 406 "},"¥":{"x_min":115.28125,"x_max":737.5625,"ha":714,"o":"m 737 991 l 672 991 l 365 561 l 180 991 l 115 991 l 325 502 l 188 502 l 180 445 l 320 445 l 312 383 l 172 383 l 163 326 l 304 326 l 258 0 l 315 0 l 361 326 l 502 326 l 511 383 l 369 383 l 377 445 l 519 445 l 527 502 l 390 502 l 737 991 "},"(":{"x_min":39.171875,"x_max":284.75,"ha":256,"o":"m 126 -86 q 101 480 59 188 q 122 590 108 529 q 158 723 136 651 q 216 895 184 815 q 284 1047 248 975 l 236 1047 q 52 480 94 769 q 41 363 45 426 q 40 230 37 301 q 42 170 40 194 q 45 133 44 147 q 48 88 48 106 q 50 59 48 70 q 61 -13 55 22 q 77 -86 68 -50 l 126 -86 "},"U":{"x_min":67.8125,"x_max":751.453125,"ha":771,"o":"m 645 247 l 751 991 l 694 991 l 588 247 q 497 98 576 154 q 329 47 425 47 q 175 97 230 47 q 126 247 113 150 l 231 991 l 176 991 l 70 247 q 129 55 54 126 q 320 -9 198 -9 q 531 54 445 -9 q 645 247 629 126 "},"Ñ":{"x_min":27.78125,"x_max":963.96875,"ha":993,"o":"m 800 1111 l 763 1141 q 735 1118 745 1126 q 719 1108 725 1111 l 701 1102 l 669 1102 l 622 1108 l 583 1125 q 562 1137 570 1133 q 491 1151 525 1151 q 350 1080 400 1151 l 384 1050 q 476 1095 426 1095 q 526 1087 506 1095 l 563 1070 q 666 1045 601 1045 q 744 1065 709 1045 l 769 1083 l 800 1111 m 822 -16 l 963 991 l 907 991 l 786 130 l 168 998 l 27 0 l 83 0 l 201 841 l 822 -16 "},"F":{"x_min":36.109375,"x_max":605.609375,"ha":601,"o":"m 538 516 l 547 573 l 172 573 l 222 934 l 597 934 l 605 991 l 175 991 l 36 0 l 91 0 l 163 516 l 538 516 "},":":{"x_min":41.671875,"x_max":191.6875,"ha":226,"o":"m 191 447 q 151 493 187 493 q 100 447 104 484 q 108 413 100 423 q 138 401 125 401 q 191 447 184 401 m 133 37 q 94 83 130 83 q 41 37 48 75 q 51 4 41 13 q 81 -8 65 -8 q 133 37 126 -8 "},"Û":{"x_min":49.75,"x_max":732,"ha":771,"o":"m 626 1086 l 483 1254 l 290 1086 l 316 1057 l 475 1194 l 594 1057 l 626 1086 m 627 247 l 732 991 l 675 991 l 570 247 q 479 98 558 154 q 311 47 406 47 q 156 97 212 47 q 108 247 95 150 l 212 991 l 156 991 l 52 247 q 111 55 36 126 q 302 -9 180 -9 q 513 54 427 -9 q 627 247 611 127 "},"*":{"x_min":5.046875,"x_max":390.8125,"ha":401,"o":"m 366 773 q 306 836 363 813 q 269 848 293 843 q 212 861 245 854 l 319 893 q 390 948 388 925 q 363 980 394 980 q 206 875 291 965 q 225 912 223 898 l 240 955 l 255 1012 q 226 1065 263 1065 q 181 1012 190 1059 l 180 944 l 193 875 l 136 941 q 65 980 102 980 q 29 945 33 972 q 87 887 25 912 l 130 870 l 183 861 q 5 775 12 819 q 30 741 1 741 q 113 783 76 750 l 188 845 l 148 754 q 137 709 141 743 q 169 658 129 655 q 211 712 202 661 l 212 773 l 202 845 l 262 780 q 330 744 294 744 q 366 773 362 744 "},"†":{"x_min":79.171875,"x_max":309.75,"ha":340,"o":"m 304 759 l 309 797 l 216 797 l 248 1022 l 209 1022 l 177 797 l 84 797 l 79 759 l 172 759 l 95 213 l 134 213 l 211 759 l 304 759 "},"°":{"x_min":31.046875,"x_max":263.40625,"ha":294,"o":"m 262 854 q 238 934 268 898 q 163 969 209 969 q 77 934 116 969 q 31 854 37 898 q 55 773 26 809 q 130 738 84 738 q 216 773 177 738 q 262 854 256 809 m 233 855 q 198 795 229 822 q 134 769 170 769 q 79 795 101 769 q 61 855 56 822 q 95 915 65 886 q 159 941 126 941 q 215 915 193 941 q 233 855 237 888 "},"V":{"x_min":122.234375,"x_max":761.171875,"ha":731,"o":"m 761 991 l 701 991 l 325 172 l 180 991 l 122 991 l 298 -16 l 761 991 "},"\u001e":{"x_min":63.890625,"x_max":1097.296875,"ha":1142,"o":"m 1090 495 q 962 898 1127 752 l 1032 982 l 986 1013 l 918 933 q 651 1005 807 1005 q 263 862 425 1005 q 69 495 100 720 q 86 266 52 372 q 206 86 122 152 l 140 5 l 184 -27 l 251 52 q 508 -13 365 -13 q 895 129 734 -13 q 1090 495 1059 270 m 879 886 l 247 133 q 141 286 173 193 q 126 495 109 379 q 300 822 155 697 q 643 950 444 950 q 879 886 773 950 m 1036 518 q 1033 495 1036 509 q 861 168 1007 297 q 515 43 716 43 q 291 100 390 43 l 922 851 q 1030 665 1008 773 q 962 691 1004 691 q 877 656 916 691 q 830 576 838 622 q 854 495 825 531 q 930 461 884 461 q 1015 495 976 461 q 1036 518 1029 506 m 1033 577 q 998 518 1027 544 q 934 491 968 491 q 879 518 900 491 q 861 577 855 545 q 895 637 865 611 q 958 663 923 663 q 1015 637 993 663 q 1033 577 1037 611 m 561 576 q 538 657 569 620 q 462 691 508 691 q 377 656 416 691 q 330 576 338 622 q 354 495 325 531 q 430 461 384 461 q 515 495 476 461 q 561 576 555 531 m 533 577 q 498 518 527 544 q 434 491 468 491 q 379 518 400 491 q 361 577 355 545 q 395 637 365 611 q 458 663 423 663 q 515 637 493 663 q 533 577 537 611 m 426 554 q 431 532 423 541 q 452 523 440 523 q 475 532 465 523 q 487 554 484 541 q 481 575 490 566 q 461 584 473 584 q 438 575 448 584 q 426 554 429 566 m 927 550 q 933 528 925 537 q 954 519 941 519 q 976 528 966 519 q 988 550 986 537 q 982 571 990 562 q 962 580 975 580 q 939 571 950 580 q 927 550 929 562 m 815 209 l 794 240 q 669 188 737 188 q 551 243 597 188 l 516 209 q 658 148 566 148 q 815 209 754 148 "},"å":{"x_min":25.609375,"x_max":651.4375,"ha":708,"o":"m 498 747 q 476 827 506 791 q 400 862 445 862 q 315 827 354 862 q 268 747 276 793 q 291 666 262 702 q 368 632 322 632 q 452 666 413 632 q 498 747 493 702 m 570 0 l 651 573 l 594 573 l 580 473 q 366 581 502 581 q 144 495 241 581 q 29 286 45 409 q 84 75 11 162 q 283 -9 156 -9 q 527 98 420 -9 l 513 0 l 570 0 m 470 748 q 436 688 465 715 q 372 662 405 662 q 316 688 337 662 q 298 748 293 716 q 333 808 302 782 q 395 834 361 834 q 452 808 430 834 q 470 748 475 782 m 565 286 q 470 115 551 187 q 290 45 390 45 q 131 116 191 45 q 84 286 69 187 q 179 456 100 387 q 358 526 259 526 q 518 455 456 526 q 565 286 577 384 "},"":{"x_min":136.125,"x_max":417.625,"ha":544,"o":"m 388 704 q 318 823 404 798 q 416 926 404 845 q 394 1009 422 977 q 312 1040 361 1040 q 226 1011 263 1040 q 179 934 190 984 l 208 934 q 309 1013 230 1013 q 369 988 348 1013 q 386 926 390 965 l 375 891 l 355 865 q 287 841 327 841 l 261 841 l 256 805 l 283 805 l 311 800 q 336 783 320 795 q 361 704 369 755 q 322 633 354 661 q 247 605 287 605 q 190 629 211 605 q 163 677 168 651 l 136 677 q 244 580 148 580 q 340 615 301 580 q 388 704 383 648 "},"0":{"x_min":16.3125,"x_max":760.9375,"ha":772,"o":"m 752 504 q 719 847 779 701 q 461 1023 644 1023 q 155 847 277 1023 q 25 504 51 701 q 58 162 -2 305 q 316 -13 133 -13 q 623 161 500 -13 q 752 504 725 304 m 693 504 q 572 187 665 313 q 323 44 466 44 q 109 205 168 44 q 86 504 61 333 q 206 822 112 690 q 454 966 311 966 q 669 805 611 966 q 693 504 718 676 "},"”":{"x_min":93.0625,"x_max":341.6875,"ha":418,"o":"m 318 859 l 341 1022 l 268 1022 l 252 922 l 298 922 l 290 859 q 255 794 286 822 l 283 794 q 318 859 313 825 m 158 859 l 181 1022 l 108 1022 l 93 922 l 138 922 l 130 859 q 95 794 126 822 l 123 794 q 158 859 154 825 "},"¾":{"x_min":50,"x_max":458.765625,"ha":544,"o":"m 430 704 q 359 823 443 798 q 456 926 445 847 q 434 1009 465 977 q 354 1040 404 1040 q 268 1011 305 1040 q 219 934 230 983 l 248 934 q 350 1013 270 1013 q 411 988 387 1013 q 426 926 431 965 l 416 891 l 395 865 q 329 841 369 841 l 302 841 l 297 805 l 323 805 l 351 800 q 377 783 363 794 q 402 704 408 755 q 363 633 395 661 q 288 605 329 605 q 230 629 251 605 q 204 677 208 654 l 176 677 q 284 580 188 580 q 381 615 341 580 q 430 704 422 650 m 450 491 l 455 527 l 101 527 l 95 491 l 450 491 m 344 83 l 347 108 l 308 108 l 356 451 l 50 83 l 279 83 l 266 -1 l 293 -1 l 305 83 l 344 83 m 281 108 l 98 108 l 319 368 l 281 108 "},"@":{"x_min":42.8125,"x_max":789.84375,"ha":828,"o":"m 732 145 q 786 290 773 204 q 709 536 807 436 q 465 630 615 630 q 190 527 312 630 q 47 273 68 425 q 104 25 26 126 q 363 -86 188 -86 q 520 -59 450 -86 q 629 1 594 -33 l 605 27 q 491 -33 569 -11 q 370 -50 426 -50 q 143 38 223 -50 q 83 273 62 127 q 212 501 102 409 q 461 594 319 594 q 680 509 597 594 q 750 290 768 420 q 705 172 738 218 q 611 111 662 111 q 569 131 583 111 q 562 206 552 159 l 613 433 l 579 433 l 562 358 q 430 441 534 441 q 286 387 348 441 q 212 251 223 333 q 236 122 200 170 q 351 73 270 73 q 519 152 462 73 q 536 102 519 125 q 600 73 556 73 q 732 145 680 73 m 511 368 q 531 272 540 330 q 475 155 522 202 q 356 111 429 111 q 250 251 229 111 q 309 359 258 315 q 425 405 361 405 q 511 368 483 405 "},"ö":{"x_min":32.5625,"x_max":630.90625,"ha":692,"o":"m 527 722 q 487 768 523 768 q 436 722 440 759 q 444 688 436 698 q 475 676 458 676 q 527 722 520 676 m 337 722 q 297 768 333 768 q 245 722 250 759 q 254 688 245 698 q 284 676 268 676 q 337 722 330 676 m 627 286 q 570 497 644 412 q 373 583 497 583 q 151 495 248 583 q 36 286 52 409 q 91 75 18 162 q 290 -9 163 -9 q 512 76 413 -9 q 627 286 608 161 m 572 286 q 477 115 558 187 q 297 45 395 45 q 137 116 200 45 q 91 286 76 187 q 186 455 104 381 q 365 527 266 527 q 526 456 465 527 q 572 286 584 390 "},"i":{"x_min":47.21875,"x_max":223.625,"ha":256,"o":"m 223 722 q 184 768 220 768 q 131 722 138 759 q 141 688 131 698 q 172 676 155 676 q 223 722 216 676 m 104 0 l 184 573 l 127 573 l 47 0 l 104 0 "},"Õ":{"x_min":51.71875,"x_max":1085.359375,"ha":1142,"o":"m 863 1127 l 827 1158 q 798 1135 809 1143 q 782 1125 787 1127 l 765 1119 l 733 1119 l 684 1125 l 647 1141 q 625 1154 633 1150 q 555 1168 588 1168 q 413 1097 463 1168 l 448 1066 q 540 1112 487 1112 q 588 1104 569 1112 l 627 1087 q 730 1062 665 1062 q 808 1082 772 1062 l 833 1100 l 863 1127 m 1079 495 q 987 863 1109 720 q 638 1005 863 1005 q 251 862 412 1005 q 58 495 88 719 q 148 127 26 269 q 495 -13 270 -13 q 884 129 720 -13 q 1079 495 1048 270 m 1022 495 q 850 168 993 294 q 504 43 705 43 q 195 170 306 43 q 115 495 86 300 q 287 822 143 694 q 632 950 434 950 q 940 822 832 950 q 1022 495 1050 697 "},"þ":{"x_min":-2.78125,"x_max":668.40625,"ha":713,"o":"m 665 286 q 608 497 682 412 q 411 581 536 581 q 158 465 263 581 l 237 1027 l 180 1027 l -2 -269 l 54 -269 l 106 106 q 327 -9 183 -9 q 550 76 451 -9 q 665 286 645 161 m 609 286 q 515 115 595 187 q 334 45 433 45 q 175 116 237 45 q 129 286 113 187 q 222 456 141 384 q 402 526 304 526 q 562 455 501 526 q 609 286 622 384 "},"]":{"x_min":6.9375,"x_max":316.6875,"ha":297,"o":"m 161 -63 l 316 1048 l 166 1048 l 159 1000 l 254 1000 l 111 -16 l 12 -16 l 6 -63 l 161 -63 "},"m":{"x_min":51.390625,"x_max":819.40625,"ha":893,"o":"m 761 0 l 816 395 q 783 533 829 483 q 650 581 737 581 q 475 491 537 581 q 323 581 437 581 q 180 516 230 581 l 188 573 l 131 573 l 51 0 l 108 0 l 163 395 q 215 490 172 455 q 316 526 258 526 q 406 488 373 526 q 433 395 440 454 l 377 0 l 434 0 l 490 395 q 643 526 506 526 q 736 487 707 526 q 759 395 766 451 l 704 0 l 761 0 "},"\u001b":{"x_min":43.0625,"x_max":670.890625,"ha":638,"o":"m 663 966 l 670 1020 l 636 1026 q 622 1028 630 1027 q 601 1029 613 1029 q 520 1009 562 1029 q 465 948 473 986 q 347 1000 434 1000 q 226 958 276 1000 q 168 845 176 915 l 129 573 l 51 573 l 43 516 l 120 516 l 48 0 l 105 0 l 177 516 l 390 516 l 318 0 l 373 0 l 445 516 l 581 516 l 590 573 l 454 573 l 498 886 q 534 958 504 937 q 593 975 556 975 l 637 970 l 663 966 m 398 573 l 186 573 l 223 838 q 338 944 237 944 q 405 926 377 944 q 441 880 433 909 l 398 573 "},"8":{"x_min":56.0625,"x_max":674.46875,"ha":757,"o":"m 637 263 q 594 445 651 373 q 483 525 552 498 q 609 611 558 548 q 670 752 661 676 q 626 937 687 866 q 451 1008 565 1008 q 258 936 338 1008 q 161 752 177 866 q 181 613 151 677 q 280 525 215 545 q 130 423 191 493 q 59 263 72 354 q 112 59 41 138 q 309 -18 183 -18 q 527 61 433 -18 q 637 263 618 138 m 615 752 q 538 609 602 665 q 468 565 506 581 q 386 548 430 548 q 311 566 344 548 q 254 612 277 584 q 216 752 204 668 q 293 895 229 840 q 443 952 358 952 q 579 895 529 952 q 615 752 627 838 m 581 263 q 491 101 568 166 q 315 37 415 37 q 158 104 213 37 q 115 263 101 170 q 205 426 127 356 q 288 479 245 459 q 379 500 331 500 q 466 479 427 500 q 534 425 504 459 q 581 263 594 358 "},"R":{"x_min":36.109375,"x_max":643.359375,"ha":672,"o":"m 580 0 l 331 495 q 443 510 391 495 q 536 555 495 525 q 604 633 577 586 q 640 745 632 680 q 634 851 648 805 q 586 928 619 897 q 506 975 554 959 q 404 991 459 991 l 175 991 l 36 0 l 91 0 l 161 495 l 268 495 l 513 0 l 580 0 m 581 747 q 507 602 569 652 q 356 552 445 552 l 169 552 l 222 934 l 394 934 q 476 922 438 934 q 539 888 513 911 q 577 829 565 865 q 581 747 588 794 "},"á":{"x_min":24.703125,"x_max":651.4375,"ha":708,"o":"m 573 836 l 547 869 l 336 683 l 365 651 l 573 836 m 570 0 l 651 573 l 594 573 l 579 473 q 365 581 504 581 q 143 495 241 581 q 27 286 47 411 q 84 75 11 159 q 283 -9 156 -9 q 526 98 422 -9 l 513 0 l 570 0 m 563 286 q 470 115 551 187 q 290 45 388 45 q 130 116 193 45 q 83 286 70 187 q 177 456 97 384 q 358 526 259 526 q 518 455 455 526 q 563 286 579 384 "},"×":{"x_min":81.546875,"x_max":444.484375,"ha":544,"o":"m 294 581 l 358 1029 l 275 1029 l 254 1002 l 329 1002 l 269 581 l 294 581 m 438 491 l 444 527 l 91 527 l 86 491 l 438 491 m 344 113 q 275 231 356 200 q 331 272 306 238 q 358 334 354 300 q 338 416 366 384 q 261 448 311 448 q 173 416 209 448 q 129 334 137 386 q 140 270 125 302 q 183 231 154 241 q 83 113 95 200 q 105 23 75 61 q 195 -12 134 -12 q 294 22 254 -12 q 344 113 336 56 m 333 334 q 300 270 329 298 q 231 245 268 245 q 172 272 194 245 q 154 334 150 297 q 190 398 161 372 q 256 423 219 423 q 316 397 295 423 q 333 334 338 372 m 319 113 q 279 41 313 72 q 200 12 243 12 q 129 41 154 12 q 108 113 101 69 q 150 187 113 155 q 229 218 184 218 q 298 187 272 218 q 319 113 325 156 "},"o":{"x_min":44.140625,"x_max":642.5,"ha":692,"o":"m 638 286 q 583 497 657 409 q 386 583 509 583 q 163 495 261 583 q 47 286 66 411 q 104 75 30 159 q 302 -9 176 -9 q 525 76 426 -9 q 638 286 622 163 m 583 286 q 490 115 570 187 q 309 45 408 45 q 150 116 212 45 q 102 286 90 187 q 198 455 116 381 q 377 527 279 527 q 538 456 477 527 q 583 286 597 387 "},"5":{"x_min":-4.171875,"x_max":713.953125,"ha":757,"o":"m 694 354 q 619 607 716 513 q 388 690 523 698 l 330 686 l 273 679 l 369 934 l 705 934 l 713 991 l 333 991 l 180 607 q 281 626 234 626 q 315 632 304 632 l 336 632 l 381 633 q 573 562 495 637 q 637 354 657 483 q 523 133 620 225 q 298 43 426 43 q 129 93 188 43 q 51 215 80 133 l -4 194 q 290 -13 54 -13 q 561 90 448 -13 q 694 354 673 197 "},"õ":{"x_min":31.171875,"x_max":629.5625,"ha":692,"o":"m 609 743 l 573 773 q 545 750 555 758 q 529 740 534 743 l 511 734 l 479 734 l 431 740 l 393 757 q 372 769 380 765 q 301 783 334 783 q 159 712 209 783 l 194 682 q 287 727 236 727 q 336 719 316 727 l 373 702 q 476 677 411 677 q 554 697 519 677 l 579 715 l 609 743 m 626 286 q 570 497 643 412 q 372 583 495 583 q 150 495 247 583 q 34 286 51 409 q 90 75 16 162 q 288 -9 162 -9 q 511 76 412 -9 q 626 286 607 161 m 570 286 q 476 115 556 187 q 295 45 395 45 q 137 116 197 45 q 90 286 75 187 q 184 455 102 381 q 363 527 266 527 q 525 456 466 527 q 570 286 584 387 "},"7":{"x_min":-31.953125,"x_max":811.171875,"ha":757,"o":"m 811 991 l 113 991 l 105 934 l 697 934 l -31 22 l 9 -13 l 811 991 "},"K":{"x_min":22.21875,"x_max":741.71875,"ha":728,"o":"m 644 0 l 200 518 l 741 991 l 661 991 l 156 551 l 218 991 l 161 991 l 22 0 l 79 0 l 144 470 l 154 479 l 565 0 l 644 0 "},",":{"x_min":48.609375,"x_max":229.1875,"ha":249,"o":"m 229 75 l 169 95 l 48 -130 l 65 -143 l 229 75 "},"d":{"x_min":24.703125,"x_max":718.109375,"ha":724,"o":"m 573 0 l 718 1027 l 661 1027 l 583 469 q 365 581 504 581 q 143 495 241 581 q 27 286 47 411 q 84 75 11 159 q 283 -9 156 -9 q 531 102 423 -9 l 516 0 l 573 0 m 563 286 q 470 115 551 187 q 290 45 388 45 q 130 116 193 45 q 83 286 70 187 q 177 456 97 384 q 358 526 259 526 q 518 455 455 526 q 563 286 579 384 "},"¨":{"x_min":163.90625,"x_max":445.875,"ha":596,"o":"m 445 722 q 406 768 441 768 q 354 722 361 759 q 363 688 354 698 q 393 676 377 676 q 445 722 438 676 m 255 722 q 216 768 251 768 q 163 722 170 759 q 173 688 163 698 q 202 676 187 676 q 255 722 248 676 "},"Ô":{"x_min":45.28125,"x_max":1079.390625,"ha":1142,"o":"m 808 1086 l 663 1254 l 472 1086 l 497 1057 l 655 1194 l 775 1057 l 808 1086 m 1072 495 q 982 863 1105 719 q 633 1005 858 1005 q 245 862 406 1005 q 51 495 84 722 q 143 127 20 270 q 490 -13 263 -13 q 877 129 716 -13 q 1072 495 1040 269 m 1015 495 q 843 168 988 297 q 498 43 698 43 q 190 170 298 43 q 108 495 81 298 q 281 822 137 697 q 625 950 429 950 q 934 822 826 950 q 1015 495 1044 694 "},"E":{"x_min":29.171875,"x_max":644.5,"ha":657,"o":"m 505 0 l 513 56 l 94 56 l 158 512 l 577 512 l 586 573 l 166 573 l 216 934 l 636 934 l 644 991 l 168 991 l 29 0 l 505 0 "},"Y":{"x_min":115.28125,"x_max":737.5625,"ha":710,"o":"m 737 991 l 672 991 l 365 562 l 180 991 l 115 991 l 327 495 l 258 0 l 315 0 l 384 495 l 737 991 "},"\"":{"x_min":83.34375,"x_max":312.53125,"ha":375,"o":"m 312 1009 l 255 1009 l 240 787 l 268 787 l 312 1009 m 156 1009 l 100 1009 l 83 787 l 112 787 l 156 1009 "},"‹":{"x_min":36.109375,"x_max":358.359375,"ha":390,"o":"m 358 587 l 333 616 l 36 354 l 255 97 l 288 126 l 91 354 l 358 587 "},"ê":{"x_min":24.609375,"x_max":625.875,"ha":681,"o":"m 554 688 l 411 855 l 219 688 l 244 658 l 402 795 l 522 658 l 554 688 m 622 298 q 568 504 640 425 q 366 583 494 583 q 141 498 236 583 q 27 286 47 415 q 81 73 11 158 q 283 -11 154 -11 q 383 2 337 -11 q 569 141 501 38 l 520 165 q 400 63 461 88 q 291 44 348 44 q 122 113 176 44 q 84 298 70 181 l 622 298 m 566 352 l 101 352 q 359 527 180 527 q 502 480 443 527 q 566 352 562 433 "},"Ï":{"x_min":26.390625,"x_max":348.640625,"ha":267,"o":"m 348 1105 q 308 1151 344 1151 q 256 1105 261 1143 q 265 1072 255 1084 q 295 1059 279 1059 q 348 1105 341 1059 m 158 1105 q 118 1151 154 1151 q 66 1105 70 1143 q 75 1072 65 1084 q 105 1059 88 1059 q 158 1105 151 1059 m 81 0 l 220 991 l 165 991 l 26 0 l 81 0 "},"„":{"x_min":93.0625,"x_max":341.6875,"ha":418,"o":"m 318 20 l 341 183 l 268 183 l 252 83 l 298 83 l 290 20 q 255 -44 286 -16 l 283 -44 q 305 -15 298 -34 q 318 20 316 0 m 158 20 l 181 183 l 108 183 l 93 83 l 138 83 l 130 20 q 95 -44 126 -16 l 123 -44 q 145 -15 138 -34 q 158 20 156 0 "},"Â":{"x_min":-43.0625,"x_max":750.0625,"ha":879,"o":"m 672 1051 l 527 1219 l 336 1051 l 361 1022 l 519 1159 l 638 1022 l 672 1051 m 750 0 l 497 1023 l -43 0 l 12 0 l 169 297 l 620 297 l 693 0 l 750 0 m 605 354 l 200 354 l 476 879 l 605 354 "},"\u0006":{"x_min":222.0625,"x_max":313.90625,"ha":432,"o":"m 313 734 q 273 780 309 780 q 222 734 226 772 q 230 701 220 713 q 261 688 244 688 q 313 734 305 688 "},"Í":{"x_min":20.828125,"x_max":361.140625,"ha":267,"o":"m 361 1201 l 338 1229 l 161 1073 l 186 1047 l 361 1201 m 76 0 l 215 991 l 159 991 l 20 0 l 76 0 "},"´":{"x_min":205.578125,"x_max":445.875,"ha":567,"o":"m 445 836 l 416 869 l 205 684 l 234 651 l 445 836 "},"ì":{"x_min":4.171875,"x_max":198.625,"ha":256,"o":"m 198 683 l 40 869 l 4 836 l 161 651 l 198 683 m 97 0 l 177 573 l 120 573 l 40 0 l 97 0 "},"±":{"x_min":61.109375,"x_max":451.421875,"ha":539,"o":"m 444 448 l 451 505 l 309 505 l 330 647 l 266 647 l 245 505 l 104 505 l 97 448 l 238 448 l 218 306 l 281 306 l 302 448 l 444 448 m 418 197 l 426 254 l 69 254 l 61 197 l 418 197 "},"Ú":{"x_min":51.140625,"x_max":734.78125,"ha":771,"o":"m 636 1201 l 613 1229 l 436 1073 l 459 1047 l 636 1201 m 629 247 l 734 991 l 677 991 l 572 247 q 480 98 559 154 q 312 47 408 47 q 158 97 213 47 q 109 247 97 150 l 215 991 l 159 991 l 54 247 q 112 55 37 126 q 304 -9 181 -9 q 515 54 429 -9 q 629 247 612 126 "},"|":{"x_min":-2.78125,"x_max":201.40625,"ha":185,"o":"m 45 -63 l 201 1048 l 152 1048 l -2 -63 l 45 -63 "},"§":{"x_min":8.328125,"x_max":495.875,"ha":528,"o":"m 481 483 q 300 705 508 669 q 190 840 176 726 q 237 925 198 890 q 326 958 276 958 q 450 866 412 958 l 495 894 q 334 1011 454 1011 q 200 962 259 1011 q 131 837 141 913 q 208 677 118 733 q 116 616 143 645 q 52 479 62 562 q 88 338 40 398 q 218 270 136 281 q 343 111 361 252 q 291 19 334 54 q 190 -13 247 -13 q 102 16 129 -13 q 63 93 73 50 l 8 69 q 68 -31 25 2 q 181 -68 111 -68 q 330 -19 266 -68 q 405 111 393 29 q 336 291 422 240 q 481 483 465 359 m 419 479 q 362 376 408 412 q 248 340 313 340 q 147 380 184 340 q 116 486 108 419 q 170 590 126 548 q 277 632 213 632 q 419 479 440 632 "},"Ý":{"x_min":98.625,"x_max":720.890625,"ha":710,"o":"m 608 1201 l 583 1232 l 405 1070 l 431 1047 l 608 1201 m 720 991 l 655 991 l 348 562 l 163 991 l 98 991 l 311 495 l 241 0 l 298 0 l 368 495 l 720 991 "},"b":{"x_min":4.171875,"x_max":635.546875,"ha":718,"o":"m 632 286 q 576 497 650 409 q 377 581 504 581 q 127 466 231 581 l 205 1027 l 148 1027 l 4 0 l 61 0 l 76 105 q 295 -9 151 -9 q 518 76 419 -9 q 632 286 615 163 m 576 286 q 483 115 563 187 q 302 45 401 45 q 143 116 205 45 q 95 286 83 187 q 190 456 109 384 q 370 526 272 526 q 530 455 468 526 q 576 286 591 384 "},"q":{"x_min":56.609375,"x_max":686.171875,"ha":697,"o":"m 568 -269 l 686 573 l 629 573 l 615 469 q 397 581 536 581 q 175 495 273 581 q 59 286 79 411 q 115 75 43 159 q 313 -9 190 -9 q 563 102 455 -9 l 511 -269 l 568 -269 m 595 286 q 501 115 580 184 q 322 45 420 45 q 162 116 222 45 q 115 286 101 188 q 209 456 130 387 q 388 526 290 526 q 548 455 487 526 q 595 286 611 384 "},"":{"x_min":109.734375,"x_max":428.96875,"ha":544,"o":"m 427 911 q 400 997 434 965 q 313 1030 366 1030 q 223 1000 263 1030 q 168 925 180 970 l 195 925 q 309 1005 233 1005 q 377 977 350 1005 q 401 911 405 954 q 363 833 394 875 l 109 580 l 379 580 l 383 605 l 169 605 l 319 751 q 364 797 347 779 q 388 823 381 815 q 427 911 422 868 "},"Ö":{"x_min":52.65625,"x_max":1086.75,"ha":1142,"o":"m 790 1105 q 751 1151 787 1151 q 698 1105 705 1143 q 708 1072 698 1082 q 738 1059 722 1059 q 790 1105 783 1059 m 600 1105 q 561 1151 597 1151 q 508 1105 515 1143 q 518 1072 508 1082 q 548 1059 531 1059 q 600 1105 593 1059 m 1080 495 q 988 863 1111 720 q 640 1005 865 1005 q 252 862 413 1005 q 59 495 91 720 q 150 127 26 272 q 497 -13 272 -13 q 884 129 723 -13 q 1080 495 1047 269 m 1023 495 q 851 168 994 294 q 505 43 705 43 q 197 170 308 43 q 116 495 87 300 q 288 822 144 694 q 633 950 436 950 q 941 822 833 950 q 1023 495 1051 697 "},"z":{"x_min":23.609375,"x_max":629.21875,"ha":635,"o":"m 629 573 l 127 573 l 120 519 l 506 519 l 23 0 l 541 0 l 550 56 l 150 56 l 629 573 "},"™":{"x_min":69.453125,"x_max":422.25,"ha":468,"o":"m 422 759 l 408 983 l 306 777 l 265 983 l 183 759 l 193 759 l 262 951 l 302 748 l 401 951 l 412 759 l 422 759 m 220 972 l 222 980 l 70 980 l 69 972 l 140 972 l 109 758 l 119 758 l 150 972 l 220 972 "},"\u000b":{"x_min":93.671875,"x_max":266.6875,"ha":368,"o":"m 259 -175 l 266 -119 l 231 -140 q 197 -148 211 -148 q 165 -134 173 -148 q 162 -98 158 -113 q 167 -75 163 -87 q 176 -52 170 -63 l 211 0 l 147 0 q 111 -58 112 -50 l 100 -88 l 94 -119 q 108 -183 90 -159 q 165 -208 129 -208 l 193 -205 l 219 -197 q 243 -187 234 -193 q 259 -175 252 -181 "},"ã":{"x_min":31.171875,"x_max":657,"ha":708,"o":"m 620 743 l 586 773 q 484 734 545 734 l 443 740 l 405 758 q 368 777 387 772 q 345 782 358 780 q 313 783 331 783 q 172 712 222 783 l 205 682 q 306 727 255 727 l 347 722 q 366 714 356 719 q 384 702 375 709 q 479 677 418 677 q 565 697 526 677 l 590 715 l 620 743 m 576 0 l 657 573 l 600 573 l 586 473 q 372 581 508 581 q 150 495 247 581 q 34 286 51 409 q 90 75 16 162 q 288 -9 162 -9 q 533 98 426 -9 l 519 0 l 576 0 m 570 286 q 476 115 556 187 q 295 45 395 45 q 137 116 197 45 q 90 286 75 187 q 184 456 105 387 q 363 526 265 526 q 523 455 462 526 q 570 286 583 384 "},"\u0019":{"x_min":71.671875,"x_max":1105.78125,"ha":1142,"o":"m 1036 -140 l 844 83 q 1098 495 1061 225 q 1008 863 1132 719 q 659 1005 884 1005 q 272 862 433 1005 q 77 495 111 722 q 169 127 47 270 q 516 -13 290 -13 q 794 54 666 -13 l 959 -140 l 1036 -140 m 1000 344 q 808 125 938 209 l 650 308 l 576 308 l 757 97 q 525 43 648 43 q 216 170 325 43 q 134 495 108 298 q 308 822 163 697 q 651 950 455 950 q 961 822 854 950 q 1044 511 1065 701 q 1038 518 1040 515 q 962 552 1008 552 q 877 518 916 552 q 830 437 838 483 q 854 356 825 393 q 930 322 884 322 q 1000 344 968 322 m 1033 447 q 1029 429 1030 438 q 1025 412 1027 420 q 998 379 1013 393 q 934 352 968 352 q 879 379 900 352 q 861 438 855 406 q 895 498 865 472 q 958 525 923 525 q 1015 498 993 525 q 1033 447 1034 473 m 561 437 q 538 518 569 481 q 462 552 508 552 q 377 518 416 552 q 330 437 338 483 q 354 356 325 393 q 430 322 384 322 q 515 356 476 322 q 561 437 555 393 m 533 438 q 498 379 527 405 q 434 352 468 352 q 379 379 400 352 q 361 438 355 406 q 395 498 365 472 q 458 525 423 525 q 515 498 493 525 q 533 438 537 472 m 426 415 q 432 393 425 402 q 452 384 440 384 q 475 393 465 384 q 487 415 486 402 q 481 436 490 427 q 461 445 473 445 q 438 436 448 445 q 426 415 429 427 m 927 411 q 933 389 925 398 q 954 380 941 380 q 976 389 966 380 q 988 411 986 398 q 983 432 991 423 q 962 441 975 441 q 940 432 950 441 q 927 411 930 423 "},"æ":{"x_min":45.484375,"x_max":1176.3125,"ha":1220,"o":"m 1172 298 q 1116 502 1191 426 q 916 580 1043 580 q 655 461 755 580 l 670 573 l 613 573 l 600 473 q 386 581 522 581 q 163 495 262 581 q 48 286 68 411 q 104 75 31 159 q 302 -9 179 -9 q 547 98 440 -9 l 533 0 l 590 0 l 605 108 q 833 -11 675 -11 q 932 2 886 -11 q 1118 141 1050 37 l 1070 165 q 950 63 1011 88 q 841 44 898 44 q 672 113 726 44 q 634 298 618 181 l 1172 298 m 1116 352 l 651 352 q 908 525 732 525 q 1068 463 1011 525 q 1116 352 1109 418 m 584 286 q 490 115 569 184 q 311 45 409 45 q 151 116 211 45 q 104 286 90 188 q 198 456 119 387 q 377 526 279 526 q 537 455 476 526 q 584 286 598 383 "},"®":{"x_min":54.609375,"x_max":498.21875,"ha":554,"o":"m 495 748 q 454 904 508 840 q 306 968 398 968 q 143 904 215 968 q 56 748 69 838 q 98 593 44 657 q 245 529 154 529 q 409 593 337 529 q 495 748 483 658 m 475 748 q 395 609 465 670 q 248 550 327 550 q 118 609 169 550 q 77 748 66 668 q 156 887 87 826 q 304 947 225 947 q 434 887 383 947 q 475 748 486 829 m 351 627 l 286 744 l 297 744 q 376 812 368 744 q 363 862 381 841 q 315 880 347 880 l 218 880 l 183 627 l 202 627 l 219 744 l 262 744 l 326 627 l 351 627 m 356 812 q 301 763 350 763 l 222 763 l 234 861 l 313 861 q 356 812 365 861 "},"É":{"x_min":12.5,"x_max":627.828125,"ha":657,"o":"m 573 1201 l 548 1232 l 370 1070 l 397 1047 l 573 1201 m 488 0 l 495 56 l 76 56 l 141 512 l 561 512 l 569 573 l 150 573 l 200 934 l 619 934 l 627 991 l 151 991 l 12 0 l 488 0 "},"~":{"x_min":40.28125,"x_max":559.765625,"ha":596,"o":"m 559 498 l 520 536 q 406 486 466 486 l 381 488 l 359 495 l 315 518 l 262 543 q 212 551 238 551 q 40 480 120 551 l 73 440 l 102 463 l 129 479 q 205 495 166 495 q 261 480 236 495 l 293 462 l 347 436 q 401 429 361 429 q 559 498 483 429 "},"³":{"x_min":136.125,"x_max":418.03125,"ha":544,"o":"m 388 704 q 318 823 404 798 q 416 926 404 845 q 394 1009 423 979 q 312 1040 361 1040 q 226 1011 263 1040 q 179 934 190 984 l 208 934 q 309 1013 230 1013 q 369 988 348 1013 q 386 926 390 965 l 375 891 l 355 865 q 287 841 327 841 l 261 841 l 256 805 l 283 805 l 311 800 q 336 783 320 795 q 361 704 369 755 q 322 633 354 661 q 247 605 287 605 q 190 629 211 605 q 163 677 168 651 l 136 677 q 244 580 148 580 q 340 615 301 580 q 388 704 383 648 "},"":{"x_min":44.453125,"x_max":463.921875,"ha":544,"o":"m 313 581 l 376 1029 l 293 1029 l 272 1002 l 347 1002 l 288 581 l 313 581 m 459 491 l 463 527 l 111 527 l 106 491 l 459 491 m 338 83 l 343 108 l 304 108 l 352 451 l 44 83 l 273 83 l 262 -1 l 288 -1 l 300 83 l 338 83 m 277 108 l 94 108 l 313 368 l 277 108 "},"¡":{"x_min":47.21875,"x_max":255.578125,"ha":283,"o":"m 255 844 q 245 879 255 869 q 212 894 233 894 q 155 844 161 886 q 198 794 148 794 q 255 844 251 802 m 102 -102 l 212 683 l 156 683 l 47 -102 l 102 -102 "},"[":{"x_min":4.171875,"x_max":309.75,"ha":297,"o":"m 158 -63 l 163 -16 l 66 -16 l 209 1000 l 302 1000 l 309 1048 l 159 1048 l 4 -63 l 158 -63 "},"L":{"x_min":36.109375,"x_max":379.203125,"ha":494,"o":"m 370 0 l 379 56 l 100 56 l 230 991 l 175 991 l 36 0 l 370 0 "},"":{"x_min":231.96875,"x_max":336.140625,"ha":544,"o":"m 272 581 l 336 1029 l 252 1029 l 231 1002 l 306 1002 l 247 581 l 272 581 "},"\u001d":{"x_min":-20.828125,"x_max":951.359375,"ha":1039,"o":"m -20 -13 l 676 -13 l 684 43 l 93 43 l 822 955 l 780 991 l -20 -13 m 450 715 q 426 795 456 762 q 351 830 397 830 q 265 795 304 830 q 219 715 225 759 q 243 634 213 670 q 318 600 272 600 q 404 634 365 600 q 450 715 444 670 m 420 716 q 386 657 416 683 q 322 630 358 630 q 266 657 288 630 q 248 716 244 683 q 283 776 252 747 q 347 802 313 802 q 402 776 380 802 q 420 716 425 750 m 950 715 q 926 795 957 762 q 851 830 897 830 q 765 795 804 830 q 719 715 725 759 q 743 634 713 670 q 818 600 772 600 q 904 634 865 600 q 950 715 944 670 m 920 716 q 886 657 916 683 q 822 630 858 630 q 766 657 788 630 q 748 716 744 683 q 783 776 752 747 q 847 802 813 802 q 902 776 880 802 q 920 716 925 750 m 315 693 q 320 671 312 680 q 341 662 329 662 q 363 671 354 662 q 376 693 373 680 q 370 714 379 705 q 350 723 362 723 q 327 714 337 723 q 315 693 318 705 m 815 688 q 821 667 813 676 q 841 658 829 658 q 864 667 854 658 q 876 688 875 676 q 871 710 879 701 q 850 719 863 719 q 827 710 837 719 q 815 688 818 701 m 595 -193 l 575 -162 q 450 -213 518 -213 q 331 -159 377 -213 l 297 -193 q 438 -254 345 -254 q 595 -193 534 -254 "}," ":{"x_min":0,"x_max":0,"ha":354},"%":{"x_min":16.671875,"x_max":751.453125,"ha":738,"o":"m 448 794 q 413 916 458 863 q 298 968 370 968 q 170 916 226 968 q 102 794 112 865 q 137 675 93 727 q 250 623 183 623 q 380 673 322 623 q 448 794 437 720 m 751 991 l 695 991 l 16 0 l 72 0 l 751 991 m 637 159 q 602 281 645 230 q 487 333 559 333 q 358 281 415 333 q 291 159 300 227 q 326 40 281 91 q 438 -11 372 -11 q 569 38 511 -11 q 637 159 627 87 m 391 794 q 345 713 386 750 q 258 680 300 680 q 183 715 212 680 q 159 794 152 747 q 205 876 165 840 q 291 911 241 911 q 368 876 338 911 q 391 794 397 840 m 580 159 q 533 79 572 113 q 447 45 493 45 q 370 80 401 45 q 348 159 340 115 q 393 241 354 205 q 479 276 431 276 q 556 241 527 276 q 580 159 586 205 "},"P":{"x_min":36.109375,"x_max":654.71875,"ha":681,"o":"m 651 745 q 600 925 668 857 q 416 991 530 991 l 175 991 l 36 0 l 91 0 l 161 495 l 347 495 q 548 565 459 495 q 651 745 636 632 m 594 745 q 513 602 581 654 q 354 552 447 552 l 169 552 l 222 934 l 406 934 q 551 887 500 934 q 594 745 607 836 "},"À":{"x_min":-44.453125,"x_max":748.671875,"ha":879,"o":"m 540 1072 l 395 1240 l 363 1209 l 504 1044 l 540 1072 m 748 0 l 495 1023 l -44 0 l 11 0 l 168 297 l 619 297 l 691 0 l 748 0 m 604 354 l 198 354 l 475 879 l 604 354 "},"_":{"x_min":-4.171875,"x_max":515.3125,"ha":496,"o":"m 506 -294 l 515 -244 l 4 -244 l -4 -294 l 506 -294 "},"ñ":{"x_min":36.109375,"x_max":584.765625,"ha":626,"o":"m 584 743 l 548 773 q 519 750 530 758 q 502 740 508 743 l 486 734 l 454 734 l 405 740 l 368 757 q 345 769 354 765 q 276 783 309 783 q 133 712 184 783 l 168 682 q 261 727 209 727 q 309 719 290 727 l 347 702 q 451 677 386 677 q 529 697 493 677 l 554 715 l 584 743 m 479 0 l 529 348 q 495 519 543 458 q 340 580 450 580 q 163 504 213 580 l 173 573 l 116 573 l 36 0 l 93 0 l 143 348 q 202 477 152 427 q 331 525 251 525 q 470 343 495 525 l 422 0 l 479 0 "},"+":{"x_min":87.5,"x_max":443.09375,"ha":525,"o":"m 434 338 l 443 395 l 301 395 l 320 537 l 256 537 l 237 395 l 95 395 l 87 338 l 229 338 l 209 197 l 273 197 l 293 338 l 434 338 "},"‚":{"x_min":88.890625,"x_max":177.796875,"ha":219,"o":"m 154 20 l 177 183 l 104 183 l 88 83 l 134 83 l 126 20 q 91 -44 122 -16 l 119 -44 q 141 -15 134 -34 q 154 20 152 0 "},"½":{"x_min":75,"x_max":466.703125,"ha":544,"o":"m 322 581 l 384 1029 l 301 1029 l 280 1002 l 355 1002 l 297 581 l 322 581 m 462 491 l 466 527 l 113 527 l 109 491 l 462 491 m 391 330 q 365 416 400 383 q 277 450 331 450 q 187 419 230 450 q 133 344 145 390 l 161 344 q 275 425 198 425 q 343 397 315 425 q 365 330 372 370 q 329 252 361 295 l 75 0 l 344 0 l 347 25 l 133 25 l 283 170 q 354 243 343 229 q 391 330 384 284 "},"Æ":{"x_min":-29.171875,"x_max":1022.296875,"ha":1028,"o":"m 883 0 l 891 56 l 470 56 l 534 516 l 955 516 l 963 573 l 544 573 l 594 934 l 1013 934 l 1022 991 l 551 991 l -29 0 l 26 0 l 293 454 l 469 454 l 405 0 l 883 0 m 476 509 l 326 509 l 525 847 l 476 509 "},"Ë":{"x_min":18.0625,"x_max":633.390625,"ha":657,"o":"m 555 1105 q 515 1151 551 1151 q 463 1105 468 1143 q 472 1072 462 1084 q 502 1059 486 1059 q 555 1105 548 1059 m 365 1105 q 325 1151 361 1151 q 273 1105 277 1143 q 281 1072 272 1084 q 312 1059 295 1059 q 365 1105 358 1059 m 494 0 l 502 56 l 83 56 l 147 512 l 566 512 l 575 573 l 155 573 l 205 934 l 625 934 l 633 991 l 156 991 l 18 0 l 494 0 "},"'":{"x_min":83.34375,"x_max":158.34375,"ha":228,"o":"m 158 991 l 100 991 l 83 770 l 113 770 l 158 991 "},"Š":{"x_min":-1.390625,"x_max":644.5,"ha":692,"o":"m 615 1193 l 590 1223 l 433 1086 l 312 1223 l 279 1193 l 425 1026 l 615 1193 m 587 256 q 534 454 604 375 q 361 569 484 509 q 233 644 261 618 q 188 768 180 695 q 265 895 201 848 q 408 941 327 941 q 530 911 486 941 q 587 843 566 887 l 644 866 q 416 997 590 997 q 229 933 311 997 q 131 768 145 869 q 181 602 116 665 q 329 511 218 563 q 479 420 445 454 q 530 256 543 356 q 445 98 516 154 q 269 45 376 45 q 58 223 83 45 l -1 204 q 262 -11 34 -11 q 393 8 334 -11 q 587 256 561 69 "},"ª":{"x_min":36.109375,"x_max":461.140625,"ha":518,"o":"m 412 588 l 461 933 l 426 933 l 418 873 q 290 938 376 938 q 156 887 213 938 q 88 761 98 836 q 122 634 79 686 q 240 583 163 583 q 387 648 326 583 l 377 588 l 412 588 m 430 466 l 436 506 l 41 506 l 36 466 l 430 466 m 409 761 q 352 659 401 704 q 244 616 304 616 q 150 659 187 616 q 122 761 113 704 q 179 862 130 819 q 286 905 226 905 q 380 862 343 905 q 409 761 418 819 "},"Œ":{"x_min":63.28125,"x_max":1579.296875,"ha":1595,"o":"m 1440 0 l 1448 56 l 1029 56 l 1093 512 l 1512 512 l 1520 573 l 1101 573 l 1151 934 l 1570 934 l 1579 991 l 1102 991 l 1068 743 q 907 940 1019 873 q 651 1005 797 1005 q 263 862 425 1005 q 69 495 100 720 q 159 127 38 272 q 506 -13 281 -13 q 782 51 659 -13 q 998 248 911 119 l 963 0 l 1440 0 m 1033 495 q 861 168 1004 294 q 515 43 716 43 q 208 170 316 43 q 126 495 98 297 q 300 822 154 694 q 643 950 444 950 q 952 822 841 950 q 1033 495 1061 695 "},"ð":{"x_min":21.875,"x_max":630.15625,"ha":692,"o":"m 616 286 q 629 467 632 387 q 611 609 627 547 q 491 801 581 711 l 629 880 l 579 916 l 445 840 q 309 911 383 890 l 252 862 l 319 833 l 377 801 l 245 725 l 297 688 l 426 763 q 565 488 552 662 q 362 581 488 581 q 140 495 238 581 q 25 286 41 409 q 80 75 8 159 q 279 -9 155 -9 q 501 76 404 -9 q 616 286 600 162 m 561 286 q 466 115 545 184 q 287 45 386 45 q 127 116 187 45 q 80 286 66 188 q 175 456 95 387 q 354 526 255 526 q 513 455 452 526 q 561 286 575 383 "},"T":{"x_min":123.625,"x_max":627.828125,"ha":613,"o":"m 627 994 l 619 932 l 402 932 l 270 -2 l 209 -2 l 341 933 l 123 933 l 131 994 l 627 994 "},"š":{"x_min":0,"x_max":456.984375,"ha":460,"o":"m 456 776 l 431 807 l 273 669 l 154 807 l 120 776 l 265 609 l 456 776 m 394 156 q 351 280 404 234 q 236 337 323 304 q 162 375 183 356 q 140 438 136 398 q 252 526 152 526 q 366 479 327 526 l 413 515 q 261 581 355 581 q 141 538 193 581 q 83 438 91 497 q 113 334 75 369 q 206 284 141 309 q 302 241 280 256 q 337 156 344 206 q 190 45 320 45 q 100 72 131 45 q 52 138 69 95 l 0 109 q 183 -11 50 -11 q 322 36 261 -11 q 394 156 384 83 "},"Þ":{"x_min":36.109375,"x_max":620.90625,"ha":681,"o":"m 618 504 q 565 683 633 618 q 383 750 498 750 l 197 750 l 230 991 l 175 991 l 36 0 l 91 0 l 127 254 l 313 254 q 515 323 426 254 q 618 504 601 390 m 561 504 q 480 361 548 413 q 319 311 413 311 l 134 311 l 188 693 l 373 693 q 516 645 468 693 q 561 504 573 593 "},"j":{"x_min":30.5625,"x_max":241.6875,"ha":257,"o":"m 241 722 q 202 768 237 768 q 150 722 154 759 q 158 688 150 698 q 188 676 175 676 q 241 722 234 676 m 87 -250 l 204 573 l 147 573 l 30 -250 l 87 -250 "},"1":{"x_min":302.796875,"x_max":536.15625,"ha":757,"o":"m 397 0 l 536 991 l 348 991 l 302 934 l 470 934 l 340 0 l 397 0 "},"›":{"x_min":36.109375,"x_max":352.8125,"ha":390,"o":"m 352 354 l 126 616 l 94 587 l 295 354 l 36 126 l 59 97 l 352 354 "},"ä":{"x_min":32.5625,"x_max":658.390625,"ha":708,"o":"m 522 722 q 481 768 518 768 q 430 722 434 759 q 438 688 430 698 q 469 676 452 676 q 522 722 515 676 m 331 722 q 291 768 327 768 q 240 722 244 759 q 248 688 240 698 q 279 676 262 676 q 331 722 325 676 m 577 0 l 658 573 l 601 573 l 587 473 q 373 581 509 581 q 150 495 248 581 q 36 286 52 408 q 91 75 18 162 q 290 -9 163 -9 q 534 98 427 -9 l 520 0 l 577 0 m 572 286 q 477 115 558 187 q 297 45 395 45 q 137 116 200 45 q 91 286 76 187 q 184 456 104 384 q 365 526 266 526 q 525 455 463 526 q 572 286 584 384 "},"¹":{"x_min":231.96875,"x_max":336.140625,"ha":544,"o":"m 272 581 l 336 1029 l 252 1029 l 231 1002 l 306 1002 l 247 581 l 272 581 "},"<":{"x_min":44.453125,"x_max":423.640625,"ha":439,"o":"m 362 152 l 372 215 l 145 365 l 413 515 l 423 577 l 44 365 l 362 152 "},"£":{"x_min":-9.71875,"x_max":633.09375,"ha":658,"o":"m 562 69 l 530 105 q 398 47 463 47 q 345 55 368 47 l 295 79 q 248 104 276 93 l 226 113 l 206 115 q 252 162 230 137 q 291 216 273 187 q 337 338 329 275 l 493 338 l 501 398 l 343 398 q 309 500 338 448 l 252 608 q 206 741 208 691 l 208 786 q 412 943 231 943 q 533 911 491 943 q 575 800 586 873 l 630 800 q 580 951 644 900 q 420 998 525 998 q 241 945 315 998 q 147 786 162 888 q 156 679 140 733 l 198 580 l 238 509 q 283 398 281 437 l 138 398 l 130 338 l 279 338 q 133 112 265 227 q 56 88 101 112 q -9 37 13 65 l 20 -1 q 83 41 58 30 q 165 58 130 59 l 197 55 l 227 47 q 263 30 245 43 q 390 -8 323 -8 q 491 16 443 -8 q 529 43 511 30 q 562 69 547 55 "},"t":{"x_min":44.453125,"x_max":333.359375,"ha":347,"o":"m 326 516 l 333 573 l 200 573 l 236 825 l 179 825 l 143 573 l 51 573 l 44 516 l 136 516 l 62 0 l 119 0 l 193 516 l 326 516 "},"¬":{"x_min":55.5625,"x_max":1257.046875,"ha":1308,"o":"m 537 106 q 525 113 530 109 q 513 120 519 116 l 537 120 q 548 111 540 116 l 537 106 m 693 9 l 672 23 l 698 9 l 693 9 m 573 0 l 594 -5 l 573 -4 l 573 0 m 552 -216 q 540 -213 541 -218 q 538 -200 538 -209 q 550 -129 538 -163 q 568 -59 561 -94 q 588 -65 575 -62 q 587 -76 587 -70 q 584 -86 587 -81 l 586 -88 q 581 -127 581 -108 l 586 -131 q 593 -114 591 -130 q 595 -93 595 -98 l 601 -95 q 597 -175 601 -136 q 577 -250 594 -213 q 564 -236 569 -244 q 556 -219 559 -227 l 552 -216 m 565 -4 l 565 -1 l 565 -4 m 547 -106 l 544 -104 q 538 -115 541 -105 q 531 -136 534 -125 q 526 -159 529 -148 q 523 -175 523 -170 q 535 -114 529 -144 q 550 -54 541 -84 l 559 -58 q 553 -81 556 -69 q 547 -106 550 -94 m 533 -169 q 529 -189 530 -180 q 523 -209 527 -198 l 533 -169 m 609 -69 q 659 -79 634 -75 q 711 -88 684 -84 q 659 -84 684 -86 q 609 -81 634 -83 l 609 -69 m 554 -11 l 545 -38 q 518 -22 530 -31 q 491 -5 505 -12 q 522 -9 506 -8 q 554 -11 538 -9 m 565 -12 q 565 -29 565 -22 q 562 -45 565 -36 l 552 -43 l 562 -12 l 565 -12 m 600 -15 l 594 -52 l 591 -56 q 570 -48 580 -55 q 573 -30 573 -40 q 573 -12 573 -22 l 600 -15 m 676 0 l 690 1 l 708 -11 l 676 0 m 619 56 l 618 52 q 627 43 618 50 q 646 30 636 37 q 666 16 657 23 q 679 8 676 9 q 644 12 662 6 q 609 27 626 18 q 574 46 591 36 q 543 65 556 56 q 581 61 562 62 q 619 56 600 59 m 556 104 l 570 91 q 547 101 559 93 l 556 104 m 544 93 l 525 94 l 536 97 l 544 93 m 563 115 l 558 113 l 554 116 l 563 115 m 780 647 q 781 653 780 650 q 782 659 782 657 l 790 668 l 791 665 q 780 647 788 654 m 775 619 l 776 619 l 775 618 l 775 619 m 395 927 l 491 927 q 477 793 488 859 q 458 658 466 726 l 441 658 q 395 927 426 794 m 584 658 l 556 658 q 559 707 558 679 q 566 761 561 734 q 580 812 570 788 q 609 850 590 836 q 613 816 615 843 q 605 757 611 788 q 593 697 600 726 q 584 658 587 668 m 527 570 q 539 585 534 577 q 547 601 544 593 l 569 601 q 556 554 562 577 q 547 506 551 530 q 534 537 537 519 q 527 570 530 555 m 454 629 l 454 630 l 454 629 m 513 658 l 502 658 q 508 676 505 668 q 513 694 511 684 l 513 658 m 527 581 l 525 601 l 538 601 q 527 581 534 591 m 472 558 l 470 593 l 475 588 q 479 593 477 588 q 481 601 480 598 l 516 601 l 519 573 q 496 563 508 566 q 472 558 484 559 m 433 658 l 372 658 q 358 793 356 723 q 370 927 359 862 l 387 927 q 433 658 419 793 m 443 561 q 394 601 412 570 q 409 600 404 601 q 423 597 415 600 l 425 601 l 440 601 l 443 561 m 463 558 l 455 559 l 459 601 l 462 601 l 463 558 m 379 601 l 384 601 q 409 571 394 584 q 443 552 423 558 q 450 512 444 516 q 455 551 455 508 l 463 550 q 472 427 466 487 q 425 513 447 470 q 379 601 402 556 m 655 651 l 654 650 l 655 651 m 661 708 l 659 690 l 661 708 m 661 601 l 662 601 q 661 597 662 598 q 661 593 661 595 l 661 601 m 641 531 l 644 523 l 644 518 l 638 520 l 641 531 m 633 555 l 633 554 l 633 551 l 633 555 m 675 661 l 669 661 l 669 668 l 675 661 m 723 683 q 684 663 707 670 l 670 679 q 671 704 670 686 q 665 725 672 722 l 662 713 l 654 713 q 651 686 654 700 q 644 658 648 672 l 593 658 q 612 747 604 702 q 620 836 620 791 q 619 850 620 841 q 611 858 618 858 q 579 832 591 858 q 561 772 568 807 q 552 705 555 738 q 548 658 550 672 l 522 658 q 522 675 522 662 q 523 701 523 688 q 522 726 523 715 q 516 738 520 737 q 509 724 512 734 q 503 701 506 713 q 497 677 500 688 q 493 658 494 665 l 473 658 q 487 793 477 726 q 500 927 497 859 q 590 929 541 927 q 679 922 638 932 q 748 883 720 912 q 776 793 776 854 q 772 754 776 773 q 757 719 768 736 q 745 711 751 723 q 737 695 740 698 q 736 709 737 700 q 734 729 736 719 q 731 749 733 740 q 726 759 729 758 l 720 755 q 720 719 720 737 q 723 683 720 701 m 773 637 l 772 636 l 766 645 l 773 651 q 772 644 772 648 q 773 637 773 640 m 754 623 l 754 637 l 758 640 q 763 630 761 636 q 766 619 766 625 q 761 621 763 620 q 757 623 759 622 l 754 623 m 730 579 l 736 575 l 729 569 l 730 579 m 745 625 l 745 626 l 745 625 m 801 672 q 802 680 801 675 q 805 688 802 686 l 811 683 l 801 672 m 1104 818 l 1104 793 q 1104 805 1105 800 q 1104 818 1104 811 m 626 493 l 626 505 l 629 508 l 626 493 m 252 601 l 308 601 q 281 555 301 579 q 252 601 262 573 m 90 645 q 87 636 87 644 q 87 626 87 629 q 84 657 84 641 q 87 688 84 673 q 90 668 90 677 q 90 645 90 658 m 88 575 l 90 575 q 90 536 90 555 q 94 497 91 516 q 90 536 90 516 q 88 575 90 555 m 98 581 l 106 591 q 113 531 111 561 q 116 469 116 501 l 125 469 l 118 619 l 120 590 l 129 590 l 140 636 q 154 594 150 616 q 166 551 159 572 l 175 552 q 208 655 187 607 l 212 626 l 220 625 l 233 665 q 244 600 236 633 q 279 545 252 568 l 284 545 l 316 601 l 369 601 q 420 504 394 552 q 473 406 445 455 l 481 409 l 472 550 l 520 563 q 547 495 526 529 l 554 498 q 564 550 558 525 q 577 601 570 576 l 613 601 l 620 591 l 609 498 l 612 493 l 608 472 l 616 469 l 619 480 l 622 450 l 630 450 l 637 509 l 638 490 l 647 488 q 657 544 655 516 q 670 600 659 572 l 711 590 l 718 581 l 715 500 l 725 554 l 741 569 q 769 522 762 550 q 776 466 776 494 q 740 370 776 409 q 645 331 704 331 l 55 331 l 55 275 l 526 275 l 534 266 l 55 -211 l 55 -290 l 565 218 l 569 194 l 545 190 l 566 170 l 548 175 l 544 168 l 561 151 l 533 152 l 530 145 l 555 129 l 500 129 l 497 122 l 526 102 l 501 95 l 501 87 l 527 79 l 504 79 l 504 70 q 530 62 512 70 q 568 43 548 54 q 607 22 588 33 q 637 6 626 11 l 573 8 l 565 26 l 555 -2 l 472 5 l 469 -1 l 504 -22 l 493 -26 l 543 -51 q 520 -145 530 -98 q 504 -241 511 -193 l 483 -219 l 470 -252 l 458 -193 l 450 -193 l 433 -230 l 441 -233 l 451 -208 l 466 -269 l 475 -268 l 487 -230 l 502 -254 l 498 -293 l 506 -294 q 512 -251 508 -273 q 531 -211 516 -229 q 557 -232 547 -219 q 576 -259 568 -245 l 583 -258 q 605 -183 601 -222 q 609 -104 609 -144 l 638 -119 l 643 -111 l 609 -91 l 609 -90 q 685 -95 647 -91 q 761 -100 723 -100 l 762 -91 q 685 -75 723 -81 q 609 -61 647 -69 l 609 -15 l 638 -19 l 640 -11 l 609 -1 q 672 -8 645 1 q 732 -29 700 -18 l 736 -20 l 702 1 l 713 11 l 625 55 l 626 66 l 579 76 l 602 80 q 582 93 591 86 q 565 106 573 100 l 600 118 l 598 126 l 570 127 l 548 144 l 572 141 l 575 150 l 559 163 l 590 152 l 594 158 l 559 187 q 578 186 568 184 q 597 191 588 188 l 577 193 l 572 226 l 573 226 l 1047 -248 l 1047 -168 l 607 275 l 1047 275 l 1047 331 l 787 331 q 821 395 811 359 q 832 466 832 430 q 827 506 832 488 q 814 539 822 523 q 797 571 807 555 q 780 607 788 587 l 794 645 l 797 645 l 798 655 l 819 680 l 809 697 l 820 723 l 830 661 l 838 661 l 850 715 q 849 679 847 697 q 857 643 851 661 l 865 643 l 895 743 q 895 676 895 711 q 900 609 895 643 q 915 545 904 576 q 950 488 926 513 l 957 491 q 954 640 957 566 q 975 784 952 713 l 1001 720 l 1009 723 q 1003 776 1004 750 q 1001 830 1002 802 q 1013 788 1009 819 q 1017 722 1016 758 q 1018 652 1018 686 q 1020 601 1019 618 l 1029 601 q 1041 672 1034 637 q 1058 743 1047 708 q 1086 677 1073 711 q 1101 605 1100 643 l 1109 604 l 1132 498 l 1140 498 l 1143 566 q 1140 625 1144 595 q 1138 683 1136 654 l 1158 661 l 1170 701 l 1252 654 l 1257 661 q 1234 675 1248 665 q 1204 693 1219 684 q 1174 709 1188 702 q 1151 713 1159 715 l 1157 686 l 1152 672 l 1136 708 q 1129 670 1130 694 q 1129 620 1129 647 q 1132 568 1130 594 q 1133 526 1134 543 q 1117 592 1125 562 q 1119 661 1109 622 l 1125 662 q 1131 722 1126 693 q 1140 782 1136 751 l 1132 783 l 1123 730 l 1126 763 l 1118 765 l 1108 672 q 1105 745 1105 709 q 1101 819 1105 783 q 1093 751 1098 790 q 1093 684 1088 712 l 1062 757 l 1054 755 q 1036 699 1043 727 q 1026 641 1030 670 q 1024 743 1025 691 q 997 840 1023 795 l 993 836 q 993 795 993 816 q 995 755 993 775 l 979 798 l 970 797 q 946 651 945 726 q 948 504 947 576 q 908 613 912 552 q 904 733 904 675 q 904 743 904 734 q 904 761 904 752 q 902 775 904 770 q 895 775 900 780 q 879 715 888 744 q 861 658 870 686 q 859 718 854 690 q 868 779 863 747 l 859 780 q 834 684 844 732 q 829 713 832 700 q 826 743 826 727 q 827 796 826 770 q 823 845 827 822 q 806 890 819 869 q 766 927 793 911 l 823 927 l 823 984 l 380 984 l 377 997 l 369 984 l 250 984 l 250 927 l 362 927 q 350 793 351 861 q 363 659 348 726 q 337 662 352 662 q 307 661 323 662 q 276 659 291 661 q 250 658 261 658 l 250 611 q 243 649 244 630 q 240 687 241 668 l 231 688 l 218 647 l 213 670 l 205 670 q 186 620 194 645 q 170 568 177 595 q 159 608 163 588 q 144 647 154 627 l 126 622 l 123 641 l 115 641 l 113 636 q 109 692 111 663 q 108 748 108 720 l 100 750 l 93 704 l 81 715 q 76 659 80 687 q 62 604 72 632 l 70 602 l 75 622 q 78 551 79 587 q 95 483 77 515 q 101 532 102 508 q 98 581 100 556 m 98 637 l 104 605 q 98 594 101 597 l 98 637 m 105 648 q 100 675 101 663 q 101 704 98 687 q 105 648 101 675 m 627 506 l 626 505 l 626 502 l 627 506 "},"ù":{"x_min":50.9375,"x_max":533.375,"ha":596,"o":"m 375 683 l 215 869 l 179 836 l 334 651 l 375 683 m 481 215 l 533 573 l 477 573 l 426 215 q 243 44 402 44 q 130 88 162 44 q 111 215 100 130 l 162 573 l 105 573 l 54 215 q 86 48 40 109 q 234 -11 133 -11 q 404 50 338 -11 q 481 215 468 111 "},"W":{"x_min":116.671875,"x_max":1251.484375,"ha":1217,"o":"m 1251 991 l 1193 991 l 819 180 l 686 1009 l 318 180 l 172 991 l 116 991 l 293 -13 l 658 818 l 788 -13 l 1251 991 "},"ï":{"x_min":33.34375,"x_max":315.296875,"ha":256,"o":"m 315 722 q 276 768 312 768 q 223 722 230 759 q 233 688 223 698 q 263 676 247 676 q 315 722 308 676 m 125 722 q 86 768 122 768 q 33 722 40 758 q 73 676 34 676 q 125 722 118 676 m 104 0 l 184 573 l 127 573 l 47 0 l 104 0 "},">":{"x_min":33.34375,"x_max":412.53125,"ha":439,"o":"m 412 365 l 94 577 l 84 515 l 309 365 l 43 215 l 33 152 l 412 365 "},"v":{"x_min":79.171875,"x_max":622.265625,"ha":604,"o":"m 622 573 l 558 573 l 284 116 l 140 573 l 79 573 l 266 -25 l 622 573 "},"û":{"x_min":52.328125,"x_max":533.375,"ha":596,"o":"m 504 688 l 359 855 l 168 688 l 193 658 l 351 795 l 470 658 l 504 688 m 483 215 l 533 573 l 477 573 l 427 215 q 244 44 404 44 q 131 88 161 44 q 112 215 100 133 l 162 573 l 105 573 l 55 215 q 87 48 41 109 q 236 -11 134 -11 q 404 50 340 -11 q 483 215 469 111 "},"Ò":{"x_min":46.609375,"x_max":1079.8125,"ha":1142,"o":"m 663 1072 l 519 1240 l 487 1209 l 629 1044 l 663 1072 m 1073 495 q 982 863 1104 720 q 634 1005 858 1005 q 247 862 408 1005 q 52 495 83 720 q 143 127 22 272 q 491 -13 265 -13 q 879 129 718 -13 q 1073 495 1043 270 m 1016 495 q 844 168 990 297 q 498 43 700 43 q 191 170 300 43 q 109 495 81 297 q 283 822 138 697 q 626 950 427 950 q 936 822 825 950 q 1016 495 1045 694 "},"\n":{"x_min":-2.78125,"x_max":668.40625,"ha":713,"o":"m 665 286 q 608 497 682 412 q 411 581 536 581 q 158 465 263 581 l 237 1027 l 180 1027 l -2 -269 l 54 -269 l 106 106 q 327 -9 183 -9 q 550 76 451 -9 q 665 286 645 158 m 609 286 q 515 115 595 187 q 334 45 433 45 q 175 116 237 45 q 129 286 113 187 q 222 456 141 384 q 402 526 304 526 q 562 455 501 526 q 609 286 622 384 "},"&":{"x_min":10.109375,"x_max":752.84375,"ha":836,"o":"m 752 284 l 729 325 l 568 206 l 397 536 l 508 605 q 655 786 643 690 q 618 930 669 879 q 470 980 565 980 q 320 925 386 980 q 241 787 254 870 q 251 700 234 743 l 281 629 l 326 545 l 152 430 q 12 212 29 327 q 52 55 0 115 q 208 -5 106 -5 q 541 130 351 -5 l 611 0 l 676 0 l 588 165 l 752 284 m 604 786 q 591 748 597 758 l 568 712 q 531 677 551 693 q 490 647 512 661 l 375 576 l 331 658 l 302 720 q 295 787 291 743 q 355 888 304 847 q 465 929 406 929 q 576 893 536 929 q 604 786 615 857 m 519 172 q 433 116 465 134 q 218 48 318 48 q 101 94 143 48 q 69 212 58 138 q 183 393 81 304 q 244 438 204 411 q 347 504 284 465 l 519 172 "},"Ð":{"x_min":36.109375,"x_max":885.890625,"ha":956,"o":"m 879 497 q 809 841 908 698 q 505 991 705 991 l 175 991 l 109 527 l 48 527 l 40 470 l 101 470 l 36 0 l 366 0 q 713 150 568 0 q 879 497 850 290 m 822 497 q 655 170 793 291 q 375 56 529 56 l 100 56 l 156 470 l 333 470 l 341 527 l 165 527 l 223 936 l 498 936 q 763 802 673 936 q 822 497 847 677 "},"I":{"x_min":37.5,"x_max":231.96875,"ha":267,"o":"m 93 0 l 231 991 l 176 991 l 37 0 l 93 0 "},"G":{"x_min":63.28125,"x_max":1087.59375,"ha":1142,"o":"m 1087 479 l 697 479 l 690 422 l 1018 422 q 872 183 983 287 q 515 43 723 43 q 208 170 319 43 q 125 495 97 297 q 300 820 151 691 q 643 950 447 950 q 990 766 883 950 l 1041 801 q 651 1005 916 1005 q 265 861 429 1005 q 69 495 100 716 q 159 127 38 272 q 506 -13 281 -13 q 908 137 743 -13 q 1087 479 1061 277 "},"`":{"x_min":137.515625,"x_max":331.96875,"ha":461,"o":"m 331 683 l 172 869 l 137 836 l 293 651 l 331 683 "},"·":{"x_min":154.171875,"x_max":245.859375,"ha":383,"o":"m 245 450 q 205 495 241 495 q 154 450 158 487 q 162 416 154 426 q 193 404 179 404 q 245 450 238 404 "},"r":{"x_min":51.390625,"x_max":427.8125,"ha":431,"o":"m 427 536 q 370 570 395 561 q 300 580 344 580 q 232 554 265 580 q 177 495 200 527 l 188 573 l 131 573 l 51 0 l 108 0 l 161 377 q 176 426 163 400 q 207 474 188 452 q 249 510 226 495 q 295 525 272 525 q 347 515 323 525 q 390 488 370 505 l 427 536 "},"¿":{"x_min":7,"x_max":543.09375,"ha":651,"o":"m 452 850 q 411 898 450 898 q 355 850 362 890 q 397 801 358 801 q 452 850 445 809 m 543 73 l 493 97 q 401 -2 444 30 q 247 -55 329 -55 q 115 -19 166 -55 q 66 100 55 22 q 131 216 75 159 q 175 251 145 230 q 248 302 204 272 l 379 390 q 498 552 486 463 q 470 648 506 612 q 373 683 433 683 q 247 641 294 683 l 273 595 q 315 618 295 613 q 365 625 331 625 q 420 605 398 625 q 437 552 441 586 q 351 430 427 480 l 222 345 q 94 255 111 272 q 9 100 22 184 q 65 -62 -5 -8 q 238 -111 126 -111 q 543 73 438 -111 "},"ý":{"x_min":122.28125,"x_max":855.125,"ha":850,"o":"m 415 0 l 555 991 l 368 991 l 322 934 l 490 934 l 358 0 l 415 0 m 354 715 q 330 795 359 759 q 254 830 300 830 q 169 795 208 830 q 123 715 129 759 q 145 634 116 669 q 222 600 176 600 q 306 634 268 600 q 354 715 348 672 m 325 716 q 290 657 320 686 q 226 630 259 630 q 170 657 193 630 q 152 716 148 683 q 187 776 156 750 q 250 802 215 802 q 306 776 284 802 q 325 716 329 750 m 854 715 q 830 795 859 759 q 754 830 800 830 q 669 795 708 830 q 623 715 629 759 q 645 634 616 669 q 722 600 676 600 q 807 634 768 600 q 854 715 848 672 m 825 716 q 790 657 820 686 q 726 630 759 630 q 670 657 693 630 q 652 716 648 683 q 687 776 657 750 q 750 802 715 802 q 807 776 784 802 q 825 716 829 750 m 218 693 q 224 671 216 680 q 244 662 231 662 q 267 671 256 662 q 279 693 277 680 q 274 714 281 705 q 252 723 266 723 q 230 714 240 723 q 218 693 220 705 m 719 688 q 725 667 716 676 q 745 658 733 658 q 768 667 758 658 q 780 688 777 676 q 775 710 783 701 q 754 719 766 719 q 732 710 741 719 q 719 688 722 701 m 544 -98 l 519 -68 l 361 -205 l 241 -68 l 208 -98 l 352 -265 l 544 -98 "},"x":{"x_min":-18.0625,"x_max":518.09375,"ha":501,"o":"m 441 0 l 287 290 l 518 573 l 451 573 l 259 336 l 133 573 l 66 573 l 218 288 l -18 0 l 50 0 l 245 240 l 375 0 l 441 0 "},"è":{"x_min":23.71875,"x_max":625.390625,"ha":681,"o":"m 441 683 l 281 869 l 245 836 l 401 651 l 441 683 m 622 298 q 566 504 638 426 q 366 583 493 583 q 141 498 236 583 q 27 286 44 413 q 81 73 8 158 q 281 -11 152 -11 q 381 2 336 -11 q 568 141 500 38 l 519 165 q 398 63 462 88 q 290 44 348 44 q 122 113 175 44 q 84 298 68 181 l 622 298 m 565 352 l 100 352 q 358 527 180 527 q 501 480 441 527 q 565 352 561 433 "},"º":{"x_min":30.5625,"x_max":447.671875,"ha":518,"o":"m 445 766 q 412 893 455 841 q 293 944 369 944 q 159 893 216 944 q 90 766 100 840 q 123 640 80 691 q 243 588 169 588 q 376 640 319 588 q 445 766 434 691 m 422 466 l 427 506 l 36 506 l 30 466 l 422 466 m 412 766 q 355 665 404 709 q 248 622 306 622 q 152 665 190 622 q 123 766 115 708 q 180 868 131 823 q 288 911 229 911 q 383 868 348 911 q 412 766 420 825 "},"Ø":{"x_min":63.890625,"x_max":1097.296875,"ha":1142,"o":"m 1090 495 q 962 898 1127 752 l 1032 982 l 986 1013 l 918 933 q 651 1005 807 1005 q 263 862 425 1005 q 69 495 100 720 q 86 266 52 372 q 206 86 122 152 l 140 5 l 184 -27 l 251 52 q 508 -13 365 -13 q 895 129 734 -13 q 1090 495 1059 270 m 1033 495 q 861 168 1007 297 q 515 43 716 43 q 291 100 390 43 l 922 851 q 1033 495 1066 722 m 879 886 l 247 133 q 141 286 173 193 q 126 495 109 379 q 300 822 155 697 q 643 950 444 950 q 879 886 773 950 "},"÷":{"x_min":75,"x_max":441.703125,"ha":503,"o":"m 326 529 q 286 575 322 575 q 234 529 238 566 q 243 495 233 508 q 273 483 256 483 q 326 529 318 483 m 431 331 l 441 402 l 84 402 l 75 331 l 431 331 m 279 202 q 240 248 276 248 q 187 202 193 240 q 197 169 187 181 q 227 156 211 156 q 279 202 272 156 "},"\u001f":{"x_min":31.046875,"x_max":763.453125,"ha":795,"o":"m 262 854 q 238 934 268 898 q 163 969 209 969 q 77 934 116 969 q 31 854 37 898 q 55 773 26 809 q 130 738 84 738 q 216 773 177 738 q 262 854 256 809 m 233 855 q 198 795 229 822 q 134 769 170 769 q 79 795 101 769 q 61 855 56 822 q 95 915 65 886 q 159 941 126 941 q 215 915 193 941 q 233 855 237 888 m 762 854 q 738 934 768 898 q 663 969 709 969 q 577 934 616 969 q 531 854 537 898 q 555 773 526 809 q 630 738 584 738 q 716 773 677 738 q 762 854 757 809 m 733 855 q 698 795 729 822 q 634 769 670 769 q 579 795 601 769 q 561 855 556 822 q 595 915 565 886 q 659 941 626 941 q 715 915 693 941 q 733 855 737 888 m 127 832 q 133 810 125 819 q 154 801 141 801 q 176 810 166 801 q 188 832 186 819 q 182 853 190 844 q 162 862 175 862 q 139 853 150 862 q 127 832 129 844 m 627 827 q 634 806 626 815 q 654 797 641 797 q 677 806 666 797 q 688 827 687 815 q 684 849 691 840 q 662 858 676 858 q 640 849 650 858 q 627 827 630 840 m 468 320 l 447 351 q 322 300 390 300 q 204 354 250 300 l 169 320 q 311 259 219 259 q 468 320 406 259 "},"h":{"x_min":30.5625,"x_max":537.65625,"ha":633,"o":"m 484 -1 l 533 350 q 340 581 566 581 q 156 497 220 581 l 231 1027 l 175 1027 l 30 0 l 87 0 l 140 373 q 206 484 151 444 q 331 526 262 526 q 476 344 501 526 l 427 -1 l 484 -1 "},"\u0005":{"x_min":113.890625,"x_max":412.53125,"ha":503,"o":"m 412 737 l 391 768 q 266 716 334 716 q 148 770 194 716 l 113 737 q 255 676 163 676 q 412 737 351 676 "},"\b":{"x_min":96.328125,"x_max":328.6875,"ha":411,"o":"m 327 747 q 304 827 333 791 q 229 862 275 862 q 143 827 181 862 q 97 747 102 791 q 120 666 91 702 q 195 632 150 632 q 281 666 243 632 q 327 747 322 702 m 298 748 q 263 688 294 715 q 200 662 236 662 q 144 688 166 662 q 126 748 122 715 q 161 808 130 779 q 225 834 191 834 q 280 808 258 834 q 298 748 302 782 "},".":{"x_min":25,"x_max":116.671875,"ha":157,"o":"m 116 37 q 77 83 112 83 q 25 37 31 75 q 34 4 25 13 q 63 -8 48 -8 q 116 37 109 -8 "},";":{"x_min":13.890625,"x_max":227.796875,"ha":283,"o":"m 227 447 q 187 493 223 493 q 136 447 140 484 q 144 413 134 426 q 175 401 158 401 q 227 447 219 401 m 194 75 l 148 95 l 13 -130 l 30 -143 l 194 75 "},"f":{"x_min":59.734375,"x_max":418.09375,"ha":376,"o":"m 409 962 l 418 1019 q 381 1029 397 1029 q 343 1032 373 1032 q 191 900 211 1032 l 145 573 l 68 573 l 59 516 l 137 516 l 65 0 l 122 0 l 194 516 l 330 516 l 338 573 l 202 573 l 245 883 q 336 975 258 975 l 373 970 l 409 962 "},"“":{"x_min":68.0625,"x_max":316.6875,"ha":397,"o":"m 301 783 l 316 883 l 270 883 l 279 945 q 313 1011 283 983 l 286 1011 q 251 945 258 993 l 227 783 l 301 783 m 141 783 l 156 883 l 111 883 l 119 945 q 154 1011 123 983 l 126 1011 q 91 945 98 993 l 68 783 l 141 783 "},"A":{"x_min":-29.171875,"x_max":763.953125,"ha":879,"o":"m 763 0 l 511 1023 l -29 0 l 33 0 l 190 297 l 634 297 l 707 0 l 763 0 m 619 354 l 220 354 l 490 865 l 619 354 "},"6":{"x_min":12.390625,"x_max":702.78125,"ha":757,"o":"m 698 318 q 634 561 719 463 q 405 658 551 658 l 341 652 l 279 636 l 216 607 l 481 991 l 416 991 l 105 545 q 75 496 90 522 q 50 441 61 470 q 34 402 40 418 q 26 379 29 387 q 23 363 25 370 q 20 348 22 355 l 16 318 q 76 70 -4 165 q 309 -23 158 -23 q 566 73 456 -23 q 698 318 677 170 m 643 318 q 533 113 626 197 q 316 31 438 31 q 125 113 194 31 q 72 318 55 194 q 184 519 88 436 q 397 602 277 602 q 587 518 516 602 q 643 318 659 433 "},"‘":{"x_min":62.5,"x_max":151.40625,"ha":226,"o":"m 136 783 l 151 883 l 105 883 l 113 945 q 148 1011 118 983 l 120 1011 q 86 945 93 993 l 62 783 l 136 783 "},"O":{"x_min":63.28125,"x_max":1096.46875,"ha":1142,"o":"m 1090 495 q 998 863 1120 720 q 651 1005 875 1005 q 263 862 425 1005 q 69 495 100 720 q 159 127 38 272 q 506 -13 281 -13 q 895 129 734 -13 q 1090 495 1059 270 m 1033 495 q 861 168 1004 294 q 515 43 716 43 q 208 170 316 43 q 126 495 98 297 q 300 822 154 694 q 643 950 444 950 q 952 822 841 950 q 1033 495 1061 695 "},"n":{"x_min":51.390625,"x_max":547.34375,"ha":626,"o":"m 494 0 l 543 348 q 511 519 559 458 q 355 580 462 580 q 179 504 229 580 l 188 573 l 131 573 l 51 0 l 108 0 l 156 348 q 218 477 169 431 q 347 525 265 525 q 486 343 511 525 l 437 0 l 494 0 "},"3":{"x_min":61.109375,"x_max":689.5,"ha":757,"o":"m 625 268 q 468 534 654 476 q 686 761 661 576 q 636 944 702 875 q 455 1013 569 1013 q 265 951 345 1013 q 155 782 181 887 l 220 782 q 447 957 280 957 q 581 901 534 957 q 618 761 630 845 q 547 623 605 670 q 481 584 518 600 q 400 568 444 568 l 341 568 l 330 500 l 388 500 q 450 484 420 500 q 506 444 479 468 q 562 268 579 379 q 476 112 550 177 q 309 50 402 50 q 186 95 240 50 q 122 209 130 143 l 61 209 q 133 50 69 108 q 301 -6 198 -6 q 516 69 423 -6 q 625 268 608 144 "},"9":{"x_min":61.109375,"x_max":751.453125,"ha":757,"o":"m 747 657 q 684 901 768 804 q 454 998 601 998 q 195 901 306 998 q 65 657 86 804 q 127 412 44 509 q 358 316 211 316 l 422 322 l 483 338 l 545 368 l 298 11 l 348 -13 l 658 429 q 688 479 675 454 q 713 533 702 505 q 747 657 738 597 m 691 657 q 580 454 675 536 q 366 372 486 372 q 173 455 244 372 q 120 657 104 538 q 230 861 137 780 q 447 943 325 943 q 638 861 569 943 q 691 657 708 780 "},"l":{"x_min":34.71875,"x_max":234.734375,"ha":267,"o":"m 90 0 l 234 1027 l 179 1027 l 34 0 l 90 0 "},"¤":{"x_min":-15.28125,"x_max":998.6875,"ha":975,"o":"m 907 379 l 915 434 l 134 434 q 136 465 136 450 q 140 495 137 480 q 145 522 143 509 q 150 548 147 536 l 932 548 l 938 605 l 166 605 q 313 822 211 733 q 657 950 458 950 q 770 938 716 950 q 872 907 823 927 q 988 829 937 876 l 998 900 q 890 968 948 944 q 665 1005 794 1005 q 277 862 438 1005 q 108 605 156 758 l 16 605 l 8 548 l 93 548 q 88 522 90 536 q 83 495 86 509 q 79 465 80 480 q 77 434 77 450 l -6 434 l -15 379 l 77 379 q 173 127 83 234 q 520 -13 295 -13 q 559 -13 541 -13 q 593 -11 577 -12 q 813 58 727 1 l 887 106 l 895 172 q 813 120 850 141 q 751 87 777 100 q 529 43 654 43 q 222 170 330 43 q 136 379 147 256 l 907 379 "},"4":{"x_min":19.453125,"x_max":711.171875,"ha":757,"o":"m 702 188 l 711 244 l 595 244 l 702 1005 l 19 188 l 529 188 l 502 0 l 561 0 l 587 188 l 702 188 m 537 244 l 143 244 l 622 822 l 537 244 "},"p":{"x_min":29.171875,"x_max":699.453125,"ha":713,"o":"m 695 286 q 640 497 713 409 q 441 581 568 581 q 188 465 294 581 l 204 573 l 147 573 l 29 -269 l 86 -269 l 138 106 q 358 -9 215 -9 q 580 76 483 -9 q 695 286 679 162 m 640 286 q 545 115 625 184 q 366 45 465 45 q 206 116 266 45 q 159 286 145 188 q 254 456 175 387 q 433 526 334 526 q 593 455 531 526 q 640 286 655 384 "},"‡":{"x_min":61.109375,"x_max":326.421875,"ha":340,"o":"m 286 506 l 291 545 l 198 545 l 227 752 l 320 752 l 326 790 l 233 790 l 265 1022 l 226 1022 l 194 790 l 101 790 l 95 752 l 188 752 l 159 545 l 66 545 l 61 506 l 154 506 l 95 93 l 134 93 l 193 506 l 286 506 "},"à":{"x_min":24.703125,"x_max":651.4375,"ha":708,"o":"m 430 683 l 269 869 l 234 836 l 390 651 l 430 683 m 570 0 l 651 573 l 594 573 l 579 473 q 365 581 504 581 q 143 495 241 581 q 27 286 47 411 q 84 75 11 159 q 283 -9 156 -9 q 526 98 422 -9 l 513 0 l 570 0 m 563 286 q 470 115 551 187 q 290 45 388 45 q 130 116 193 45 q 83 286 70 187 q 177 456 97 384 q 358 526 259 526 q 518 455 455 526 q 563 286 579 384 "},"Ü":{"x_min":56.703125,"x_max":740.34375,"ha":771,"o":"m 605 1105 q 566 1151 602 1151 q 513 1105 520 1143 q 523 1072 513 1082 q 552 1059 537 1059 q 605 1105 598 1059 m 415 1105 q 376 1151 412 1151 q 323 1105 330 1143 q 333 1072 323 1082 q 362 1059 347 1059 q 415 1105 408 1059 m 634 247 l 740 991 l 683 991 l 577 247 q 486 98 565 154 q 318 47 413 47 q 163 97 219 47 q 115 247 102 150 l 220 991 l 165 991 l 59 247 q 118 55 43 126 q 309 -9 187 -9 q 520 54 434 -9 q 634 247 618 126 "},"ó":{"x_min":24.703125,"x_max":623.5,"ha":692,"o":"m 556 836 l 530 869 l 319 683 l 348 651 l 556 836 m 619 286 q 563 497 638 412 q 366 583 490 583 q 144 495 241 583 q 27 286 47 411 q 84 75 11 159 q 283 -9 156 -9 q 505 76 406 -9 q 619 286 602 163 m 563 286 q 470 115 551 187 q 290 45 388 45 q 130 116 193 45 q 83 286 70 187 q 179 455 97 381 q 358 527 259 527 q 519 456 458 527 q 563 286 577 387 "},"\u001a":{"x_min":43.0625,"x_max":622.265625,"ha":654,"o":"m 613 516 l 622 573 l 447 573 l 493 902 q 456 1002 501 966 q 351 1036 416 1036 q 234 998 284 1036 q 173 895 184 962 l 129 573 l 51 573 l 43 516 l 120 516 l 48 0 l 105 0 l 177 516 l 383 516 l 311 0 l 366 0 l 438 516 l 613 516 m 391 573 l 186 573 l 229 886 q 344 980 244 980 q 436 888 448 980 l 391 573 "},"\r":{"x_min":59.734375,"x_max":197.234375,"ha":256,"o":"m 116 0 l 197 573 l 140 573 l 59 0 l 116 0 "}}}
